<svg width="76" height="76" viewBox="0 0 76 76" fill="none" xmlns="http://www.w3.org/2000/svg">
<path d="M19.7802 76C19.5136 75.8417 19.2973 75.6112 19.1561 75.3352C19.0149 75.0592 18.9547 74.7488 18.9825 74.44C19.0077 72.9544 19.0122 71.469 18.9825 69.9938C18.9619 69.6482 19.0438 69.3042 19.218 69.0051C19.3921 68.7059 19.6508 68.4647 19.9614 68.312C23.6127 66.1385 27.2403 63.934 30.9035 61.7755C31.1512 61.6765 31.3505 61.4848 31.4593 61.2412C31.568 60.9977 31.5775 60.7217 31.4858 60.4712C31.1159 58.8088 30.8441 57.1253 30.5128 55.4555C30.3766 54.7777 30.3089 54.0879 30.3108 53.3965C30.3187 50.5243 30.3187 47.6579 30.3108 44.7966C30.3108 43.8444 30.2856 43.8308 29.4195 44.1561L2.29448 54.3101C0.779282 54.8776 0.0192014 54.3508 0.0142498 52.7295C0.0142498 50.4818 0.0321032 48.2325 0.00536441 45.9848C-0.0229282 45.6269 0.0611877 45.2691 0.245995 44.9613C0.430802 44.6534 0.707085 44.4108 1.03629 44.2675C2.17864 43.6821 3.28679 43.0257 4.43359 42.4478C4.64978 42.3617 4.83029 42.2046 4.94554 42.0024C5.06079 41.8002 5.10394 41.565 5.0679 41.3351C5.03224 40.6457 5.04858 39.9521 5.0679 39.2554C5.08141 38.4086 5.37368 37.5897 5.89949 36.9258C6.42531 36.2619 7.15533 35.7898 7.97649 35.5827C8.78171 35.3612 9.63776 35.4141 10.4097 35.7329C11.1816 36.0516 11.8255 36.6181 12.2398 37.3432C12.5889 37.9702 12.8593 37.9181 13.3703 37.6105C14.1947 37.1144 15.0518 36.6701 15.9119 36.2363C16.0952 36.1654 16.25 36.0361 16.352 35.8682C16.4541 35.7002 16.4979 35.5031 16.4764 35.3078C16.4467 34.5189 16.4616 33.7259 16.4764 32.9311C16.4879 32.0962 16.7688 31.2875 17.2775 30.6254C17.7861 29.9633 18.4952 29.4831 19.2989 29.257C20.1132 29.0232 20.9824 29.0702 21.767 29.3901C22.5515 29.7099 23.2058 30.2839 23.6246 31.0204C23.999 31.7201 24.3005 31.7232 24.9111 31.3697C26.3639 30.5273 27.8271 29.6939 29.3408 28.969C29.6783 28.8363 29.9611 28.5935 30.1431 28.2799C30.3251 27.9662 30.3958 27.6 30.3435 27.2411C30.3049 23.1864 30.3009 19.1339 30.3316 15.0832C30.3391 11.1677 31.1702 7.29764 32.7708 3.72431C33.0849 2.88856 33.5863 2.13571 34.2365 1.52384C34.8867 0.911977 35.6684 0.45703 36.5217 0.194203C37.7623 -0.145669 39.0829 -0.0370002 40.2513 0.501043C41.4197 1.03909 42.3609 1.97199 42.9092 3.13566C44.5902 6.53433 45.528 10.2522 45.6604 14.0415C45.8089 18.5384 45.7005 23.0325 45.7257 27.5294C45.6979 27.8068 45.761 28.0856 45.9054 28.3241C46.0498 28.5626 46.2677 28.7476 46.5264 28.8515C48.1753 29.6923 49.7945 30.5897 51.4152 31.4959C51.8697 31.7499 52.0702 31.6698 52.3198 31.2137C52.717 30.4375 53.3663 29.8193 54.1611 29.4608C54.9559 29.1023 55.8489 29.0248 56.6936 29.241C57.5382 29.4571 58.2843 29.9542 58.8093 30.6504C59.3342 31.3466 59.6068 32.2005 59.5824 33.0721C59.5824 33.8149 59.6076 34.5577 59.5824 35.3005C59.5605 35.496 59.6039 35.6931 59.7057 35.8613C59.8075 36.0295 59.9621 36.1593 60.1454 36.2305C61.0901 36.7148 62.024 37.2209 62.947 37.7487C63.3035 37.9523 63.4773 37.9061 63.6987 37.5362C64.103 36.748 64.7683 36.125 65.5811 35.7728C66.3938 35.4206 67.3036 35.3613 68.1551 35.6052C69.0102 35.8379 69.7593 36.3575 70.2767 37.077C70.7941 37.7965 71.0484 38.672 70.9969 39.5568C71.0291 39.9752 71.0256 40.3956 70.9865 40.8135C70.8913 41.2218 70.9581 41.6514 71.1728 42.0115C71.3875 42.3716 71.7333 42.6344 72.1377 42.7449C73.1048 43.1757 74.0124 43.7417 74.9601 44.2305C75.3842 44.4335 75.7441 44.7496 76 45.1441V53.7443C75.9002 53.9323 75.7626 54.0976 75.5959 54.23C75.4292 54.3623 75.237 54.4587 75.0313 54.5132C74.8256 54.5678 74.6108 54.5793 74.4005 54.547C74.1901 54.5146 73.9887 54.4389 73.8089 54.325L46.6245 44.1296C45.7852 43.8132 45.7525 43.8324 45.7525 44.7237C45.7525 47.6385 45.7525 50.5532 45.7525 53.4679C45.7521 54.1099 45.6889 54.7504 45.5638 55.3801C45.2326 57.0751 44.9533 58.7804 44.5745 60.4636C44.4844 60.715 44.4962 60.9915 44.6072 61.2343C44.7182 61.4772 44.9196 61.6671 45.1687 61.7635C48.8037 63.9146 52.4119 66.1074 56.044 68.263C56.3769 68.425 56.6538 68.683 56.8391 69.0036C57.0243 69.3242 57.1095 69.6926 57.0838 70.062C57.0437 71.4941 57.0526 72.9278 57.0838 74.3599C57.1216 74.6801 57.0665 75.0044 56.9251 75.2942C56.7837 75.584 56.5618 75.8271 56.2861 75.9942H54.8006C50.6293 75.2781 46.4591 74.5606 42.2898 73.8416C42.1695 73.8106 42.0424 73.8197 41.9279 73.8677C41.8134 73.9157 41.7177 74 41.6555 74.1075C41.0344 75.0071 40.1286 75.6717 39.0841 75.9942H37.0044C35.9622 75.6645 35.0589 74.9981 34.436 74.0998C34.2414 73.7894 33.9636 73.8251 33.6532 73.8786C32.0043 74.1623 30.3509 74.4236 28.702 74.7059C26.2262 75.1308 23.7549 75.5604 21.288 75.9942L19.7802 76ZM43.0102 34.2103C43.0102 27.9104 43.0102 21.6088 43.0102 15.3059C43.0288 11.6361 42.2243 8.00891 40.6558 4.69126C40.4627 4.12354 40.1007 3.62848 39.6182 3.2724C39.1358 2.91631 38.556 2.71613 37.9566 2.69897C37.3704 2.71557 36.8034 2.91171 36.3322 3.26079C35.8609 3.60987 35.5081 4.09504 35.3214 4.651C33.8192 7.86324 33.0399 11.3658 33.0382 14.912C33.0184 27.812 33.0184 40.7115 33.0382 53.6105C33.0292 53.9311 33.05 54.2519 33.1006 54.5687C34.2038 60.313 35.3129 66.0575 36.428 71.8018C36.6316 72.8506 37.1426 73.3319 38.0205 73.3349C38.8984 73.3379 39.4228 72.8727 39.6263 71.8254C40.4686 67.4889 41.2262 63.1334 42.1665 58.8162C42.8252 55.6504 43.1178 52.419 43.0385 49.1863C42.9716 44.1947 43.0207 39.2048 43.0207 34.2117M30.3063 36.3302V32.6978C30.3063 31.5212 30.3063 31.5094 29.2962 32.0606C23.8227 35.0199 18.3496 37.9812 12.8771 40.9444C9.72934 42.6499 6.58607 44.3612 3.42941 46.0563C3.20285 46.1487 3.01249 46.3122 2.88708 46.5223C2.76167 46.7324 2.70804 46.9776 2.73422 47.2209C2.77432 48.2801 2.73417 49.3453 2.74754 50.4075C2.74754 51.2216 2.804 51.2603 3.53041 50.9929C4.82675 50.5116 6.12158 50.0268 7.41495 49.5385C14.7671 46.7812 22.1203 44.0278 29.4745 41.2785C29.748 41.2186 29.9883 41.0563 30.1458 40.8247C30.3033 40.5932 30.3661 40.3102 30.3212 40.0337C30.2707 38.8007 30.3063 37.5648 30.3063 36.3302ZM45.7555 36.2914C45.7555 37.5735 45.7822 38.8601 45.7435 40.1436C45.7059 40.3857 45.7618 40.6328 45.8997 40.8353C46.0376 41.0377 46.2473 41.1802 46.4863 41.2339C48.5318 41.9692 50.561 42.7447 52.5946 43.5098L72.4304 50.9378C73.2979 51.2631 73.3127 51.2498 73.3216 50.2871C73.2785 49.5725 73.2845 48.8559 73.3395 48.1421C73.4463 47.6057 73.3522 47.0486 73.0749 46.5771C72.7977 46.1056 72.3568 45.7529 71.8362 45.5855C66.6369 42.8579 61.4868 40.013 56.3188 37.2141C53.0834 35.4611 49.846 33.7113 46.6066 31.9652C45.7703 31.5195 45.7629 31.527 45.7614 32.506C45.7614 33.7643 45.7614 35.0317 45.7614 36.2871M21.7232 71.5341C21.7232 71.9501 21.7306 72.2234 21.7232 72.4938C21.7069 72.9276 21.8346 73.1193 22.3323 73.0331C25.8826 72.426 29.4364 71.8319 32.9936 71.2505C33.4526 71.1747 33.5403 71.0053 33.4482 70.5567C33.061 68.6749 32.6985 66.7849 32.3608 64.8863C32.2479 64.246 32.0384 64.203 31.5051 64.5269C28.6144 66.2888 25.7206 68.0432 22.7957 69.7457C22.0025 70.2062 21.4826 70.6949 21.7247 71.5283M54.3579 71.7586C54.3133 71.1243 54.5228 70.4705 53.7429 70.0159C50.6501 68.2124 47.5856 66.3583 44.5329 64.4939C43.9818 64.1581 43.8317 64.3233 43.7307 64.87C43.4084 66.617 43.0622 68.3596 42.7221 70.1037C42.5141 71.1674 42.5126 71.1615 43.5866 71.3368C46.7269 71.8508 49.8668 72.3696 53.0061 72.8935C54.6401 73.1684 54.3252 73.1477 54.3638 71.7586M19.134 33.3188C19.1162 34.4879 19.134 34.5074 19.9911 34.0409C20.3818 33.8285 20.7681 33.6069 21.1617 33.4004C21.4306 33.2518 21.6074 33.0735 21.4885 32.7526C21.432 32.5095 21.2991 32.2912 21.1093 32.1291C20.9194 31.9671 20.6827 31.87 20.4338 31.8524C20.1848 31.822 19.933 31.8796 19.7219 32.0153C19.5109 32.1509 19.3539 32.356 19.2781 32.5952C19.2024 32.8307 19.1526 33.0739 19.1295 33.3202M56.956 33.3841C56.9394 33.1843 56.9101 32.986 56.8684 32.79C56.8275 32.5036 56.6751 32.2447 56.4445 32.07C56.2139 31.8953 55.9237 31.8186 55.6369 31.8568C55.3873 31.8729 55.15 31.9714 54.962 32.1364C54.7739 32.3013 54.6457 32.5235 54.5971 32.7689C54.4352 33.2889 54.9105 33.3632 55.2076 33.5415C55.5047 33.7197 55.8523 33.907 56.1776 34.0808C56.9456 34.4923 56.9634 34.4789 56.956 33.3841ZM7.79081 39.5434C7.77892 40.561 7.83089 40.5951 8.65088 40.1643C9.02076 39.9726 9.38326 39.7616 9.75166 39.5626C10.1572 39.3412 10.1394 39.0429 9.91505 38.7012C9.76546 38.4809 9.54528 38.3181 9.2908 38.2398C9.03633 38.1616 8.76278 38.1725 8.51528 38.2707C8.26779 38.3688 8.06114 38.5485 7.92944 38.7799C7.79773 39.0113 7.74883 39.2804 7.79081 39.5434ZM68.2502 39.5789C68.3078 39.3111 68.2672 39.0318 68.1357 38.7915C68.0043 38.5512 67.7908 38.3662 67.5342 38.2703C67.3184 38.1715 67.0765 38.1451 66.8444 38.1948C66.6124 38.2446 66.4026 38.3681 66.2463 38.5467C65.9031 38.9418 65.8006 39.3177 66.374 39.6119C66.7246 39.7902 67.0648 39.9906 67.4139 40.1734C68.2027 40.5893 68.2561 40.5549 68.2517 39.5789" fill="#767A61"/>
</svg>
