<svg width="299" height="45" viewBox="0 0 299 45" fill="none" xmlns="http://www.w3.org/2000/svg">
<path d="M285.557 33.4259C285.438 32.5933 285.855 30.7498 286.806 27.8954C287.698 25.2193 288.768 22.4243 290.077 19.3915C291.444 16.2992 292.634 13.9204 293.764 12.2553C294.834 10.5902 295.786 9.69823 296.678 9.51983C297.213 9.46036 297.748 9.63876 298.164 10.1145C298.164 10.1145 298.105 10.1145 298.045 10.1145C297.748 10.174 297.451 10.4118 297.094 10.8281C296.44 11.6607 295.667 12.9095 294.715 14.5151C293.288 17.2506 291.98 19.9267 290.79 22.5433C289.601 25.1599 288.59 27.4791 287.817 29.501C287.044 31.6418 286.628 32.8907 286.687 33.3664C286.628 33.6637 286.449 33.8421 286.092 33.9016C285.736 33.9016 285.557 33.7232 285.557 33.4259ZM285.081 39.1942C284.784 39.2537 284.606 39.1348 284.427 39.0158C284.308 38.8374 284.189 38.5996 284.189 38.3022C284.13 37.886 284.189 37.4697 284.427 37.0534C284.606 36.5777 284.903 36.2803 285.319 36.0425C285.379 36.0425 285.438 36.0425 285.498 36.0425C285.795 35.983 285.973 36.1614 286.092 36.5777C286.211 36.9345 286.152 37.5291 285.855 38.3022C285.617 38.778 285.438 39.0158 285.319 39.1348C285.2 39.1348 285.141 39.1942 285.081 39.1942Z" fill="#849573"/>
<path d="M280.727 26.5868C281.262 26.4084 281.619 27.241 280.965 27.4194C277.575 28.4303 274.067 30.036 272.699 31.2253C274.305 33.3662 272.58 37.6478 270.082 39.0156C267.942 40.2049 265.741 38.2425 266.633 36.2206C267.466 34.2582 270.142 32.1173 270.915 31.3442C269.785 29.9765 267.882 29.025 268.12 27.0626C268.417 24.3865 271.391 22.1862 273.829 21.7699C275.078 21.5321 275.078 23.554 274.126 23.6134C272.877 23.6729 270.499 24.5055 269.964 26.1705C269.428 27.8951 271.034 29.1439 272.104 30.3333C275.375 28.133 278.408 27.122 280.727 26.5868ZM268.834 37.5289C270.082 36.8747 272.104 33.7824 271.45 32.2957C271.093 32.5931 269.072 34.615 268.12 36.0422C267.347 37.1721 267.228 38.302 268.834 37.5289Z" fill="#849573"/>
<path d="M254.218 25.1595C254.753 24.5053 255.823 25.4568 255.407 26.0515C253.921 28.1328 252.374 32.0577 253.326 32.474C254.694 33.0687 259.273 25.5757 260.819 23.0781C261.413 22.1266 263.257 23.197 262.662 24.089C261.949 25.1595 261.354 26.3488 260.819 28.0139C259.927 30.6305 259.689 33.3065 261.057 33.6039C263.554 34.1391 267.598 28.3113 268.847 26.5272C269.085 26.1704 269.917 26.4678 269.501 27.0624C268.609 28.4302 264.565 34.8527 261.116 34.7338C257.786 34.6148 258.083 30.2142 259.154 27.6571C257.013 30.8684 253.683 35.3285 251.661 33.9607C249.936 32.7713 252.255 27.3598 254.218 25.1595Z" fill="#849573"/>
<path d="M230.927 10.8279C228.668 16.2395 225.1 19.867 221.948 23.3756C217.607 28.252 218.558 28.3709 216.893 34.4366C218.32 31.4038 221.472 25.6949 223.732 23.7324C224.921 22.7215 226.467 23.6135 226.17 25.2191C224.029 37.2316 232.176 31.9985 235.031 26.7653C235.388 25.9922 236.399 26.5274 235.923 27.241C232.712 32.2958 228.37 35.0313 225.813 33.723C224.267 32.9499 223.494 30.8091 224.446 25.457C224.564 24.6839 224.267 24.565 223.91 24.9813C221.591 27.241 218.142 34.0798 216.893 36.9343C216.298 38.2426 214.098 37.8858 214.455 36.518C216.536 27.5978 220.58 14.8123 227.181 8.33028C229.619 5.8921 232.176 7.73561 230.927 10.8279ZM219.748 24.0298C221.175 22.662 226.289 17.0126 228.251 13.9797C230.154 10.9469 231.225 7.08146 228.727 9.51964C226.17 11.9578 221.115 20.1049 219.748 24.0298Z" fill="#849573"/>
<path d="M194.217 18.4397C193.385 18.1424 193.861 16.8341 194.634 17.1314C196.656 17.964 203.197 16.953 207.598 16.2989C208.668 14.3959 209.738 12.6713 210.749 11.2441C213.901 6.96241 216.161 6.2488 217.35 7.20029C218.599 8.21124 218.48 10.9468 215.685 15.2284C219.788 14.8122 228.054 14.0391 232.99 15.2284C233.763 15.4068 233.228 16.8935 232.396 16.5367C228.411 15.05 219.61 15.9421 214.793 16.4773C211.403 21.2347 207.538 24.327 205.338 27.3004C204.208 28.7871 203.911 30.6306 203.613 32.4741C203.316 34.496 203.494 36.28 204.386 37.5289C207.062 41.0969 215.923 29.798 217.41 26.7652C217.588 26.3489 218.361 26.6463 218.183 27.0625C216.042 31.5226 211.404 36.6963 208.073 38.7182C204.446 40.8591 201.948 39.3724 201.77 35.1501C201.472 29.9764 203.97 23.1971 206.884 17.6071C202.781 18.1424 196.299 19.0938 194.217 18.4397ZM212.712 12.0766C211.701 13.3849 210.809 14.6932 210.036 15.9421C211.404 15.7636 212.771 15.5852 214.139 15.4068C214.317 15.1095 214.496 14.8716 214.674 14.6338C218.242 9.04379 216.875 6.60561 212.712 12.0766ZM209.263 17.2503C207.3 20.5211 206.051 23.435 205.814 24.5649C208.906 21.651 211.463 18.9154 213.188 16.7151C211.879 16.8935 210.571 17.0719 209.263 17.2503Z" fill="#849573"/>
<path d="M196.463 23.6731C196.047 23.4947 196.523 21.7106 197.058 20.8781C197.534 20.1645 199.199 20.7592 198.544 21.7701C198.366 22.0675 198.069 22.3648 197.95 22.5432C196.879 23.792 197.058 23.8515 196.463 23.6731ZM194.084 34.4962C191.349 33.069 193.728 26.7654 194.976 24.684C195.452 23.8515 197.355 24.8624 196.82 25.5761C195.928 26.7059 193.549 32.5933 195.274 33.4258C197.831 34.6152 202.41 28.5494 203.659 26.7059C204.016 26.1113 204.908 26.6465 204.491 27.2412C202.826 29.4415 197.831 36.5181 194.084 34.4962Z" fill="#849573"/>
<path d="M171.477 32.474C169.634 31.6414 170.942 28.0139 172.964 25.3378C173.38 24.6837 174.688 25.5757 174.331 26.1704C172.785 28.4896 171.596 30.9278 172.785 31.1062C174.391 31.3441 177.424 24.089 178.018 22.6023C178.256 22.0671 178.97 22.0076 179.565 22.305C180.04 22.4834 180.397 23.0186 180.219 23.2565C179.803 24.0295 178.91 25.9325 178.375 28.0139C177.602 31.1062 177.543 34.3175 179.089 34.6743C182.241 35.3284 184.976 26.0514 185.511 23.9106C185.69 23.4349 186.344 23.3159 186.879 23.4943C187.474 23.6727 187.831 24.089 187.652 24.5053C186.225 27.776 191.28 30.1547 194.372 26.5867C194.669 26.2893 195.502 26.5272 195.145 27.1813C192.885 30.2142 187.771 29.9169 186.284 27.6571C185.155 30.3331 182.657 36.1015 179.148 36.042C175.64 35.6258 175.878 30.571 176.71 28.0139C175.521 30.2737 173.558 33.4849 171.477 32.474Z" fill="#849573"/>
<path d="M147.481 23.1379C148.908 22.7216 149.682 23.792 149.622 24.8625C149.444 27.6574 145.935 30.1551 143.794 30.9282C142.902 34.1989 148.135 36.3397 154.142 26.8844C154.617 26.1113 155.39 26.706 155.034 27.2412C153.131 30.0956 149.8 34.4962 146.589 34.9125C143.854 35.2693 141.475 33.4258 142.189 29.9172C142.724 27.1222 145.281 23.7326 147.481 23.1379ZM148.671 24.2083C148.135 23.7326 144.865 26.4086 143.913 29.9172C147.422 27.8953 149.146 24.6246 148.671 24.2083Z" fill="#849573"/>
<path d="M120.463 18.4397C119.631 18.1424 120.107 16.8341 120.88 17.1314C122.902 17.964 129.443 16.953 133.844 16.2989C134.914 14.3959 135.985 12.6713 136.995 11.2441C140.147 6.96241 142.407 6.2488 143.596 7.20029C144.845 8.21124 144.726 10.9468 141.931 15.2284C146.035 14.8122 154.301 14.0391 159.236 15.2284C160.009 15.4068 159.474 16.8935 158.642 16.5367C154.657 15.05 145.856 15.9421 141.039 16.4773C137.65 21.2347 133.784 24.327 131.584 27.3004C130.454 28.7871 130.157 30.6306 129.859 32.4741C129.562 34.496 129.74 36.28 130.632 37.5289C133.308 41.0969 142.169 29.798 143.656 26.7652C143.834 26.3489 144.607 26.6463 144.429 27.0625C142.288 31.5226 137.65 36.6963 134.319 38.7182C130.692 40.8591 128.194 39.3724 128.016 35.1501C127.718 29.9764 130.216 23.1971 133.13 17.6071C129.027 18.1424 122.545 19.0938 120.463 18.4397ZM138.958 12.0766C137.947 13.3849 137.055 14.6932 136.282 15.9421C137.65 15.7636 139.017 15.5852 140.385 15.4068C140.564 15.1095 140.742 14.8716 140.92 14.6338C144.488 9.04379 143.121 6.60561 138.958 12.0766ZM135.509 17.2503C133.546 20.5211 132.298 23.435 132.06 24.5649C135.152 21.651 137.709 18.9154 139.434 16.7151C138.125 16.8935 136.817 17.0719 135.509 17.2503Z" fill="#849573"/>
<path d="M121.616 24.0297C122.211 23.9108 123.043 24.6244 122.508 25.338C120.605 27.9546 119.475 33.9014 121.854 34.3771C124.53 34.9123 128.633 28.6682 129.823 26.7652C130.06 26.3489 130.952 26.6463 130.536 27.3599C129.644 28.7871 125.779 35.5664 122.032 35.507C118.524 35.4475 118.167 31.8794 118.643 29.2629C117.572 30.8685 115.967 33.3067 114.48 34.3771C113.053 35.4475 111.15 34.0798 111.328 32.5336C111.625 29.6197 114.301 25.1596 117.156 23.9702C118.345 23.4945 119.594 24.7433 119.891 25.6948C119.891 25.7543 120.962 24.2081 121.616 24.0297ZM118.643 27.5978C118.94 26.23 118.702 24.6838 117.691 25.0406C115.788 25.7543 112.517 32.6525 113.588 33.1877C114.301 33.4851 118.345 28.6087 118.643 27.5978Z" fill="#849573"/>
<path d="M103.555 23.3754C103.852 22.2455 105.874 22.7213 105.339 24.089C104.269 26.8245 103.198 29.9763 102.901 30.7494C104.031 29.2033 106.112 23.8512 108.313 24.2674C110.097 24.6242 111.881 28.3112 115.092 25.5757C115.508 25.2189 115.924 25.8731 115.449 26.2893C108.967 30.8089 109.264 23.9106 107.183 25.9325C105.518 27.5382 103.198 32.6524 101.949 35.5663C101.474 36.6367 99.1545 36.0421 99.7492 34.7338C101.057 31.0468 102.723 26.5867 103.555 23.3754Z" fill="#849573"/>
<path d="M86.0636 34.4368C85.8257 34.853 85.7663 35.1504 85.8852 35.3288C86.0041 35.5072 86.4204 35.4477 87.1935 35.1504C88.4423 34.6152 89.6317 33.7231 90.7616 32.5338C91.832 31.3444 92.724 30.0956 93.3781 28.8468C94.0323 27.598 94.3296 26.6465 94.3296 25.9329C94.3296 25.2787 93.8539 25.1003 92.9619 25.5166C91.713 26.2897 90.4642 27.598 89.0965 29.5009C87.7287 31.4634 86.7177 33.069 86.0636 34.4368ZM95.7568 9.46029C94.2702 11.0659 92.724 13.1473 91.0589 15.8233C89.3938 18.4994 88.2044 20.6402 87.4314 22.3053C88.3234 21.7701 89.5722 20.6402 91.1184 19.0346C92.6051 17.429 93.9728 15.7639 95.1622 13.9204C95.8758 12.7905 96.4705 11.6606 96.8867 10.6496C97.303 9.63869 97.4219 8.92508 97.303 8.56827C97.1841 8.27093 96.6489 8.56827 95.7568 9.46029ZM89.4533 35.4477C89.6911 35.5072 90.1669 35.5072 90.8805 35.4477C91.5941 35.3882 92.6051 35.1504 93.9728 34.7341C95.2811 34.3178 96.8273 33.4258 98.5518 32.1175C100.276 30.8687 101.823 29.0252 103.19 26.7059C103.309 26.5275 103.488 26.4086 103.726 26.3491C103.963 26.3491 104.142 26.4086 104.32 26.5275C104.439 26.7059 104.439 26.8843 104.32 27.1222C102.001 30.5119 99.6223 32.8906 97.303 34.2584C94.9243 35.6261 92.9024 36.3992 91.2968 36.5776C89.6317 36.756 88.2639 36.8155 87.134 36.6965C86.0041 36.6371 85.2311 36.3992 84.9337 36.1019C84.3985 36.756 83.8038 37.0533 83.1497 36.9939C82.4955 36.9344 81.9603 36.6371 81.663 36.1613C81.5441 35.9829 81.544 35.5072 81.6035 34.7936C81.663 34.1394 81.7819 33.4258 81.9603 32.6527C82.1387 31.8796 82.2577 31.3444 82.3766 30.9282C83.3875 27.5385 84.9337 23.6136 87.0151 19.2725C89.0965 14.9313 91.4752 11.2443 94.1512 8.3304C95.5784 6.96264 96.7678 6.60584 97.6598 7.14105C98.5518 7.67626 98.7302 8.86561 98.0761 10.6496C96.9462 13.2068 95.4595 15.526 93.6755 17.6668C91.8914 19.8077 89.9885 21.8296 88.026 23.7326C87.6098 24.1488 87.253 24.4462 87.0745 24.684C86.8367 24.9814 86.5393 25.3382 86.242 25.7545C85.5879 26.7654 85.0527 27.8953 84.6364 29.2631C84.2201 30.6308 83.9228 31.8796 83.7444 33.0095C83.566 34.1394 83.447 34.853 83.447 35.1504C83.9822 34.3773 84.5174 33.6042 85.0526 32.8311C86.4204 30.7498 88.5018 28.1926 91.4157 25.2193C93.2592 23.4947 94.6864 22.9595 95.6379 23.4947C96.5894 24.0894 96.7678 25.2787 96.2326 27.0628C95.3406 29.4415 93.9728 31.4634 92.2482 33.1285C91.2373 34.08 90.3453 34.853 89.4533 35.4477Z" fill="#849573"/>
<path d="M76.8621 23.1379C78.2893 22.7216 79.0624 23.792 79.003 24.8625C78.8245 27.6574 75.3159 30.1551 73.1751 30.9282C72.2831 34.1989 77.5163 36.3397 83.5225 26.8844C83.9982 26.1113 84.7713 26.706 84.4145 27.2412C82.5115 30.0956 79.1814 34.4962 75.9701 34.9125C73.2346 35.2693 70.8559 33.4258 71.5695 29.9172C72.1047 27.1222 74.6618 23.7326 76.8621 23.1379ZM78.0515 24.2083C77.5163 23.7326 74.2455 26.4086 73.294 29.9172C76.8026 27.8953 78.5272 24.6246 78.0515 24.2083Z" fill="#849573"/>
<path d="M61.7165 27.5978C60.6461 29.025 60.3488 30.809 60.1109 32.5336C59.5162 36.2206 60.4083 40.086 64.6305 37.0531C68.0201 34.5555 72.3018 28.7277 73.2533 26.7057C73.4912 26.2895 74.2048 26.5868 74.0264 27.0031C72.1234 30.9874 68.1985 35.5664 65.1657 37.9452C61.8949 40.5023 58.5053 39.9076 58.3269 35.2096C57.9701 28.1924 62.9059 17.7261 66.9497 12.0767C69.9231 7.85446 72.0639 7.08138 73.2533 8.03286C74.4426 8.92488 74.3237 11.5415 71.5882 15.7637C68.1985 21.0563 63.9763 24.446 61.7165 27.5978ZM68.7932 12.7903C65.1657 17.6666 62.5491 23.3161 62.1923 24.9217C66.1172 21.1752 69.2095 17.5477 70.6962 15.169C74.0858 9.75743 72.7776 7.43819 68.7932 12.7903Z" fill="#849573"/>
<path d="M53.1102 23.1379C54.5374 22.7216 55.3105 23.792 55.251 24.8625C55.0726 27.6574 51.564 30.1551 49.4232 30.9282C48.5311 34.1989 53.7643 36.3397 59.7705 26.8844C60.2463 26.1113 61.0194 26.706 60.6626 27.2412C58.7596 30.0956 55.4294 34.4962 52.2181 34.9125C49.4826 35.2693 47.1039 33.4258 47.8175 29.9172C48.3527 27.1222 50.9098 23.7326 53.1102 23.1379ZM54.2995 24.2083C53.7643 23.7326 50.4936 26.4086 49.5421 29.9172C53.0507 27.8953 54.7753 24.6246 54.2995 24.2083Z" fill="#849573"/>
<path d="M33.4291 23.7324C30.5746 25.6354 26.8281 27.8357 23.1411 29.2034C21.6544 34.7339 21.7734 44.784 30.2773 43.4162C37.235 42.2269 44.9658 33.9609 49.2475 27.6573C49.4259 27.3599 49.6043 27.1221 49.7827 26.8247C49.7827 26.8247 49.7827 26.7653 49.8422 26.7653C49.8422 26.7058 49.9016 26.6463 49.9016 26.6463C50.3179 26.2301 50.7937 26.6463 50.5558 27.1221C49.7827 28.5493 48.7718 30.0955 47.6419 31.6416C43.3602 37.7073 36.7593 44.0704 30.6341 44.9029C23.1411 45.8544 18.7405 39.7292 20.4651 30.0955C13.1506 32.1174 5.3008 31.1064 0.483914 28.0141C-0.645974 27.241 0.424447 25.7543 1.4354 26.5274C5.59814 29.9765 13.1506 30.7496 20.8814 28.0736C23.6763 18.3803 30.8125 8.56812 38.4244 3.27549C45.1442 -1.363 50.4369 -1.06566 51.4478 4.10804C52.994 12.0767 44.8469 26.8842 36.9971 26.8842C35.2131 26.8842 33.8453 25.8732 33.4291 23.7324ZM39.9705 4.46485C33.7264 9.28174 26.6497 18.3208 23.7358 26.9437C27.4228 25.3975 31.1693 23.1972 33.6669 21.2348C36.0456 13.4445 40.8031 10.0548 42.706 10.8874C44.3711 11.6604 43.4791 16.6557 35.0347 22.6025C34.6779 24.6839 35.5699 25.8138 37.1161 25.7543C43.2413 25.457 50.8531 11.482 49.9611 3.92964C49.5448 0.361569 46.2741 -0.411514 39.9705 4.46485ZM35.5699 19.9265C40.922 15.7043 42.6466 12.3741 42.1114 11.8983C41.5167 11.4226 38.0676 14.1581 35.5699 19.9265Z" fill="#849573"/>
</svg>
