<svg width="130" height="55" viewBox="0 0 130 55" fill="none" xmlns="http://www.w3.org/2000/svg">
<g clip-path="url(#clip0_34_115)">
<path d="M39.7301 4.5062C36.0286 -3.67588 23.5016 6.15698 28.769 12.9037C36.3847 12.7601 35.4598 17.2097 31.2597 16.4207C29.9075 16.2053 28.6978 15.56 27.7007 14.5545C13.8927 15.6308 5.70721 26.11 3.57258 35.9418C0.512052 50.2961 11.2595 57.9754 23.3591 50.0088C29.8363 45.7028 35.3876 38.1671 38.8754 33.2148C39.4452 32.4248 40.4413 33.0711 39.8715 33.8601C36.17 39.0997 30.7612 46.9945 24.284 51.516C11.6146 60.4152 -2.47827 51.1569 0.36859 36.3009C2.36281 25.4626 11.2595 15.128 26.7046 12.9745C24.7114 9.38569 25.6372 5.07971 28.0568 2.63997C31.6158 -0.877045 38.093 -1.0925 41.7223 3.28633C42.6472 4.36256 40.2276 5.65426 39.7291 4.5062H39.7301Z" fill="#767A61"/>
<path d="M41.0842 31.2767C38.9485 35.2954 38.7359 40.0323 39.4471 40.3914C40.9417 41.1096 44.9271 34.5065 46.2091 28.4779C46.5652 27.0426 49.1272 28.2624 48.5574 29.4823C46.4218 33.7883 49.9096 37.5926 55.3907 31.8513C55.7468 31.4204 56.6717 31.7076 56.1741 32.6402C52.6151 36.8026 47.9887 36.8744 46.494 33.6446C44.0745 38.9561 40.5154 43.4775 38.1661 42.1848C36.2441 41.1804 36.8851 35.2226 39.2334 30.1276C39.6607 29.1232 41.7242 30.1276 41.0842 31.2757V31.2767Z" fill="#767A61"/>
<path d="M52.7562 37.2335C53.4685 33.2866 57.0977 28.6923 60.087 27.9034C62.1515 27.4006 63.2188 28.9796 63.0763 30.4867C62.8627 34.4336 57.9514 37.7352 55.0333 38.6688C54.7484 40.2478 55.247 41.9704 56.8841 42.4731C59.2324 43.2631 62.0802 40.966 64.571 38.0953C68.6276 33.4302 72.0442 26.6117 75.0335 28.1906C77.3116 29.4105 74.3213 35.3683 73.6101 37.0899C75.1048 35.08 79.3038 29.8414 81.6531 32.7839C82.578 34.0038 83.219 37.5926 84.6425 38.8125C86.7781 40.5351 90.4786 38.0235 92.8279 34.3628C93.184 33.7883 94.2514 34.4347 93.7528 35.1518C92.1157 37.4489 87.5605 42.2566 84.0015 40.7495C80.656 39.2423 81.4395 33.501 79.6599 33.501C77.6667 33.501 74.1799 38.9561 72.9691 41.8267C72.3993 43.0466 69.1251 42.0422 69.6949 40.4632C70.7622 37.5208 74.7487 29.9132 73.4677 29.985C72.1155 30.1287 70.1935 33.143 67.774 36.4445C64.9983 40.1052 61.6529 44.0521 58.4499 44.483C54.9621 44.9857 51.8303 41.756 52.7562 37.2345V37.2335ZM55.1758 37.3053C60.0158 34.6501 62.5066 30.1287 61.7954 29.5541C61.0831 28.836 56.4567 32.353 55.1758 37.3053Z" fill="#767A61"/>
<path d="M83.6438 21.0847C86.0633 22.0891 93.8927 20.8692 99.1601 20.0803C100.441 17.7831 101.722 15.7025 102.933 13.9799C106.706 8.81208 109.41 7.9513 110.833 9.09935C112.328 10.3192 112.186 13.6208 108.84 18.7886C113.752 18.2859 123.644 17.3533 129.553 18.7886C130.478 19.004 129.838 20.7984 128.84 20.3675C124.072 18.5731 113.538 19.6494 107.773 20.2957C103.716 26.037 99.0899 29.7695 96.4557 33.3583C95.1035 35.1527 94.7474 37.377 94.3913 39.6024C94.0351 42.0431 94.2488 44.1956 95.3161 45.7028C98.5191 50.0087 109.124 36.3726 110.904 32.712C111.117 32.2092 112.042 32.5683 111.829 33.0711C109.267 38.4543 103.714 44.6983 99.7289 47.1381C95.3873 49.7215 92.3981 47.9281 92.1844 42.8321C91.8283 36.5881 94.8176 28.406 98.3054 21.6603C93.3941 22.3066 85.636 23.4547 83.1453 22.6647C82.1492 22.3056 82.7179 20.7266 83.6438 21.0857V21.0847ZM97.0244 30.0557C100.726 26.5387 103.786 23.2372 105.85 20.582C104.284 20.7974 102.718 21.0129 101.152 21.2283C98.804 25.1762 97.3093 28.6922 97.0244 30.0557ZM102.078 19.6494L106.989 19.003C107.203 18.6439 107.417 18.3566 107.63 18.0704C111.901 11.3236 110.264 8.38118 105.282 14.9843C104.072 16.5633 103.004 18.1422 102.079 19.6494H102.078Z" fill="#767A61"/>
<path d="M125.921 33.5012C121.864 34.7211 117.664 36.6592 116.027 38.0945C117.949 40.6779 115.885 45.8457 112.895 47.4965C110.333 48.9318 107.699 46.5638 108.767 44.1231C109.764 41.7551 112.967 39.1707 113.892 38.2381C112.54 36.5874 110.262 35.4393 110.547 33.0703C110.903 29.8406 114.461 27.1854 117.38 26.6827C118.875 26.3954 118.875 28.8362 117.736 28.908C116.242 28.9798 113.395 29.9842 112.754 31.9941C112.113 34.0758 114.035 35.5829 115.316 37.0183C119.23 34.3631 122.86 33.1422 125.636 32.4968C126.277 32.2814 126.703 33.2868 125.921 33.5012ZM114.532 39.3862C114.105 39.7453 111.686 42.185 110.547 43.9076C109.622 45.2711 109.48 46.6346 111.401 45.702C112.895 44.912 115.315 41.1806 114.532 39.3862Z" fill="#767A61"/>
</g>
<defs>
<clipPath id="clip0_34_115">
<rect width="130" height="55" fill="white"/>
</clipPath>
</defs>
</svg>
