<svg width="483" height="78" viewBox="0 0 483 78" fill="none" xmlns="http://www.w3.org/2000/svg">
<path d="M55.4768 41.352C50.8688 44.424 44.8208 47.976 38.8688 50.184C36.4688 59.112 36.6608 75.336 50.3888 73.128C61.6208 71.208 74.1008 57.864 81.0128 47.688C81.3008 47.208 81.5888 46.824 81.8768 46.344C81.8768 46.344 81.8768 46.248 81.9728 46.248C81.9728 46.152 82.0688 46.056 82.0688 46.056C82.7408 45.384 83.5088 46.056 83.1248 46.824C81.8768 49.128 80.2448 51.624 78.4208 54.12C71.5088 63.912 60.8528 74.184 50.9648 75.528C38.8688 77.064 31.7648 67.176 34.5488 51.624C22.7408 54.888 10.0688 53.256 2.29275 48.264C0.46875 47.016 2.19675 44.616 3.82875 45.864C10.5488 51.432 22.7408 52.68 35.2208 48.36C39.7328 32.712 51.2528 16.872 63.5408 8.328C74.3888 0.839996 82.9328 1.32 84.5648 9.672C87.0608 22.536 73.9088 46.44 61.2368 46.44C58.3568 46.44 56.1488 44.808 55.4768 41.352ZM66.0368 10.248C55.9568 18.024 44.5328 32.616 39.8288 46.536C45.7808 44.04 51.8288 40.488 55.8608 37.32C59.7008 24.744 67.3808 19.272 70.4528 20.616C73.1408 21.864 71.7008 29.928 58.0688 39.528C57.4928 42.888 58.9328 44.712 61.4288 44.616C71.3168 44.136 83.6048 21.576 82.1648 9.384C81.4928 3.62399 76.2128 2.37599 66.0368 10.248ZM58.9328 35.208C67.5728 28.392 70.3568 23.016 69.4928 22.248C68.5328 21.48 62.9648 25.896 58.9328 35.208ZM87.249 40.392C89.553 39.72 90.801 41.448 90.705 43.176C90.417 47.688 84.753 51.72 81.297 52.968C79.857 58.248 88.305 61.704 98.001 46.44C98.769 45.192 100.017 46.152 99.441 47.016C96.369 51.624 90.993 58.728 85.809 59.4C81.393 59.976 77.553 57 78.705 51.336C79.569 46.824 83.697 41.352 87.249 40.392ZM89.169 42.12C88.305 41.352 83.025 45.672 81.489 51.336C87.153 48.072 89.937 42.792 89.169 42.12ZM101.141 47.592C99.4133 49.896 98.9333 52.776 98.5493 55.56C97.5892 61.512 99.0293 67.752 105.845 62.856C111.317 58.824 118.229 49.416 119.765 46.152C120.149 45.48 121.301 45.96 121.013 46.632C117.941 53.064 111.605 60.456 106.709 64.296C101.429 68.424 95.9572 67.464 95.6692 59.88C95.0932 48.552 103.061 31.656 109.589 22.536C114.389 15.72 117.845 14.472 119.765 16.008C121.685 17.448 121.493 21.672 117.077 28.488C111.605 37.032 104.789 42.504 101.141 47.592ZM112.565 23.688C106.709 31.56 102.485 40.68 101.909 43.272C108.245 37.224 113.237 31.368 115.637 27.528C121.109 18.792 118.997 15.048 112.565 23.688ZM125.593 40.392C127.897 39.72 129.145 41.448 129.049 43.176C128.761 47.688 123.097 51.72 119.641 52.968C118.201 58.248 126.649 61.704 136.345 46.44C137.113 45.192 138.361 46.152 137.785 47.016C134.713 51.624 129.337 58.728 124.153 59.4C119.737 59.976 115.897 57 117.049 51.336C117.913 46.824 122.041 41.352 125.593 40.392ZM127.513 42.12C126.649 41.352 121.369 45.672 119.833 51.336C125.497 48.072 128.281 42.792 127.513 42.12ZM140.445 58.632C140.061 59.304 139.965 59.784 140.157 60.072C140.349 60.36 141.021 60.264 142.269 59.784C144.285 58.92 146.205 57.48 148.029 55.56C149.757 53.64 151.197 51.624 152.253 49.608C153.309 47.592 153.789 46.056 153.789 44.904C153.789 43.848 153.021 43.56 151.581 44.232C149.565 45.48 147.549 47.592 145.341 50.664C143.133 53.832 141.501 56.424 140.445 58.632ZM156.093 18.312C153.693 20.904 151.197 24.264 148.509 28.584C145.821 32.904 143.901 36.36 142.653 39.048C144.093 38.184 146.109 36.36 148.605 33.768C151.005 31.176 153.213 28.488 155.133 25.512C156.285 23.688 157.245 21.864 157.917 20.232C158.589 18.6 158.781 17.448 158.589 16.872C158.397 16.392 157.533 16.872 156.093 18.312ZM145.917 60.264C146.301 60.36 147.069 60.36 148.221 60.264C149.373 60.168 151.005 59.784 153.213 59.112C155.325 58.44 157.821 57 160.605 54.888C163.389 52.872 165.885 49.896 168.093 46.152C168.285 45.864 168.573 45.672 168.957 45.576C169.341 45.576 169.629 45.672 169.917 45.864C170.109 46.152 170.109 46.44 169.917 46.824C166.173 52.296 162.333 56.136 158.589 58.344C154.749 60.552 151.485 61.8 148.893 62.088C146.205 62.376 143.997 62.472 142.173 62.28C140.349 62.184 139.101 61.8 138.621 61.32C137.757 62.376 136.797 62.856 135.741 62.76C134.685 62.664 133.821 62.184 133.341 61.416C133.149 61.128 133.149 60.36 133.245 59.208C133.341 58.152 133.533 57 133.821 55.752C134.109 54.504 134.301 53.64 134.493 52.968C136.125 47.496 138.621 41.16 141.981 34.152C145.341 27.144 149.181 21.192 153.501 16.488C155.805 14.28 157.725 13.704 159.165 14.568C160.605 15.432 160.893 17.352 159.837 20.232C158.013 24.36 155.613 28.104 152.733 31.56C149.853 35.016 146.781 38.28 143.613 41.352C142.941 42.024 142.365 42.504 142.077 42.888C141.693 43.368 141.213 43.944 140.733 44.616C139.677 46.248 138.813 48.072 138.141 50.28C137.469 52.488 136.989 54.504 136.701 56.328C136.413 58.152 136.221 59.304 136.221 59.784C137.085 58.536 137.949 57.288 138.813 56.04C141.021 52.68 144.381 48.552 149.085 43.752C152.061 40.968 154.365 40.104 155.901 40.968C157.437 41.928 157.725 43.848 156.861 46.728C155.421 50.568 153.213 53.832 150.429 56.52C148.797 58.056 147.357 59.304 145.917 60.264ZM168.683 40.776C169.163 38.952 172.427 39.72 171.563 41.928C169.835 46.344 168.107 51.432 167.627 52.68C169.451 50.184 172.811 41.544 176.363 42.216C179.243 42.792 182.123 48.744 187.307 44.328C187.979 43.752 188.651 44.808 187.883 45.48C177.419 52.776 177.899 41.64 174.539 44.904C171.851 47.496 168.107 55.752 166.091 60.456C165.323 62.184 161.579 61.224 162.539 59.112C164.651 53.16 167.339 45.96 168.683 40.776ZM197.84 41.832C198.799 41.64 200.144 42.792 199.28 43.944C196.208 48.168 194.384 57.768 198.224 58.536C202.544 59.4 209.168 49.32 211.088 46.248C211.472 45.576 212.911 46.056 212.24 47.208C210.8 49.512 204.56 60.456 198.512 60.36C192.848 60.264 192.272 54.504 193.04 50.28C191.312 52.872 188.72 56.808 186.32 58.536C184.015 60.264 180.943 58.056 181.231 55.56C181.711 50.856 186.032 43.656 190.64 41.736C192.56 40.968 194.576 42.984 195.056 44.52C195.056 44.616 196.784 42.12 197.84 41.832ZM193.04 47.592C193.52 45.384 193.136 42.888 191.504 43.464C188.432 44.616 183.151 55.752 184.88 56.616C186.032 57.096 192.56 49.224 193.04 47.592ZM195.977 32.808C194.633 32.328 195.401 30.216 196.649 30.696C199.913 32.04 210.473 30.408 217.577 29.352C219.305 26.28 221.033 23.496 222.665 21.192C227.753 14.28 231.401 13.128 233.321 14.664C235.337 16.296 235.145 20.712 230.633 27.624C237.257 26.952 250.601 25.704 258.569 27.624C259.817 27.912 258.953 30.312 257.609 29.736C251.177 27.336 236.969 28.776 229.193 29.64C223.721 37.32 217.481 42.312 213.929 47.112C212.105 49.512 211.625 52.488 211.145 55.464C210.665 58.728 210.953 61.608 212.393 63.624C216.713 69.384 231.017 51.144 233.417 46.248C233.705 45.576 234.953 46.056 234.665 46.728C231.209 53.928 223.721 62.28 218.345 65.544C212.489 69 208.457 66.6 208.169 59.784C207.689 51.432 211.721 40.488 216.425 31.464C209.801 32.328 199.337 33.864 195.977 32.808ZM225.833 22.536C224.201 24.648 222.761 26.76 221.513 28.776C223.721 28.488 225.929 28.2 228.137 27.912C228.425 27.432 228.713 27.048 229.001 26.664C234.761 17.64 232.553 13.704 225.833 22.536ZM220.265 30.888C217.097 36.168 215.081 40.872 214.697 42.696C219.689 37.992 223.817 33.576 226.601 30.024C224.489 30.312 222.377 30.6 220.265 30.888ZM239.593 40.392C241.897 39.72 243.145 41.448 243.049 43.176C242.761 47.688 237.097 51.72 233.641 52.968C232.201 58.248 240.649 61.704 250.345 46.44C251.113 45.192 252.361 46.152 251.785 47.016C248.713 51.624 243.337 58.728 238.153 59.4C233.737 59.976 229.897 57 231.049 51.336C231.913 46.824 236.041 41.352 239.593 40.392ZM241.513 42.12C240.649 41.352 235.369 45.672 233.833 51.336C239.497 48.072 242.281 42.792 241.513 42.12ZM278.33 55.464C275.354 54.12 277.466 48.264 280.73 43.944C281.402 42.888 283.514 44.328 282.938 45.288C280.442 49.032 278.522 52.968 280.442 53.256C283.034 53.64 287.93 41.928 288.89 39.528C289.274 38.664 290.426 38.568 291.386 39.048C292.154 39.336 292.73 40.2 292.442 40.584C291.77 41.832 290.33 44.904 289.466 48.264C288.218 53.256 288.122 58.44 290.618 59.016C295.706 60.072 300.122 45.096 300.986 41.64C301.274 40.872 302.33 40.68 303.194 40.968C304.154 41.256 304.73 41.928 304.442 42.6C302.138 47.88 310.298 51.72 315.29 45.96C315.77 45.48 317.114 45.864 316.538 46.92C312.89 51.816 304.634 51.336 302.234 47.688C300.41 52.008 296.378 61.32 290.714 61.224C285.05 60.552 285.434 52.392 286.778 48.264C284.858 51.912 281.69 57.096 278.33 55.464ZM318.666 41.256C317.994 40.968 318.762 38.088 319.626 36.744C320.394 35.592 323.082 36.552 322.026 38.184C321.738 38.664 321.258 39.144 321.066 39.432C319.338 41.448 319.626 41.544 318.666 41.256ZM314.826 58.728C310.41 56.424 314.25 46.248 316.266 42.888C317.034 41.544 320.106 43.176 319.242 44.328C317.802 46.152 313.962 55.656 316.746 57C320.874 58.92 328.266 49.128 330.282 46.152C330.858 45.192 332.298 46.056 331.626 47.016C328.938 50.568 320.874 61.992 314.826 58.728ZM315.04 32.808C313.696 32.328 314.464 30.216 315.712 30.696C318.976 32.04 329.536 30.408 336.64 29.352C338.368 26.28 340.096 23.496 341.728 21.192C346.816 14.28 350.464 13.128 352.384 14.664C354.4 16.296 354.208 20.712 349.696 27.624C356.32 26.952 369.664 25.704 377.632 27.624C378.88 27.912 378.016 30.312 376.672 29.736C370.24 27.336 356.032 28.776 348.256 29.64C342.784 37.32 336.544 42.312 332.992 47.112C331.168 49.512 330.688 52.488 330.208 55.464C329.728 58.728 330.016 61.608 331.456 63.624C335.776 69.384 350.08 51.144 352.48 46.248C352.768 45.576 354.016 46.056 353.728 46.728C350.272 53.928 342.784 62.28 337.408 65.544C331.552 69 327.52 66.6 327.232 59.784C326.752 51.432 330.784 40.488 335.488 31.464C328.864 32.328 318.4 33.864 315.04 32.808ZM344.896 22.536C343.264 24.648 341.824 26.76 340.576 28.776C342.784 28.488 344.992 28.2 347.2 27.912C347.488 27.432 347.776 27.048 348.064 26.664C353.824 17.64 351.616 13.704 344.896 22.536ZM339.328 30.888C336.16 36.168 334.144 40.872 333.76 42.696C338.752 37.992 342.88 33.576 345.664 30.024C343.552 30.312 341.44 30.6 339.328 30.888ZM374.303 20.52C370.655 29.256 364.895 35.112 359.807 40.776C352.799 48.648 354.335 48.84 351.647 58.632C353.951 53.736 359.039 44.52 362.687 41.352C364.607 39.72 367.103 41.16 366.623 43.752C363.167 63.144 376.319 54.696 380.927 46.248C381.503 45 383.135 45.864 382.367 47.016C377.183 55.176 370.175 59.592 366.047 57.48C363.551 56.232 362.303 52.776 363.839 44.136C364.031 42.888 363.551 42.696 362.975 43.368C359.231 47.016 353.663 58.056 351.647 62.664C350.687 64.776 347.135 64.2 347.711 61.992C351.071 47.592 357.599 26.952 368.255 16.488C372.191 12.552 376.319 15.528 374.303 20.52ZM356.255 41.832C358.559 39.624 366.815 30.504 369.983 25.608C373.055 20.712 374.783 14.472 370.751 18.408C366.623 22.344 358.463 35.496 356.255 41.832ZM411.902 43.656C412.766 42.6 414.494 44.136 413.822 45.096C411.422 48.456 408.926 54.792 410.462 55.464C412.67 56.424 420.062 44.328 422.558 40.296C423.518 38.76 426.494 40.488 425.534 41.928C424.382 43.656 423.422 45.576 422.558 48.264C421.118 52.488 420.734 56.808 422.942 57.288C426.974 58.152 433.502 48.744 435.518 45.864C435.902 45.288 437.246 45.768 436.574 46.728C435.134 48.936 428.606 59.304 423.038 59.112C417.662 58.92 418.142 51.816 419.87 47.688C416.414 52.872 411.038 60.072 407.774 57.864C404.99 55.944 408.734 47.208 411.902 43.656ZM454.696 45.96C455.56 45.672 456.136 47.016 455.08 47.304C449.608 48.936 443.944 51.528 441.736 53.448C444.328 56.904 441.544 63.816 437.512 66.024C434.056 67.944 430.504 64.776 431.944 61.512C433.288 58.344 437.608 54.888 438.856 53.64C437.032 51.432 433.96 49.896 434.344 46.728C434.824 42.408 439.624 38.856 443.56 38.184C445.576 37.8 445.576 41.064 444.04 41.16C442.024 41.256 438.184 42.6 437.32 45.288C436.456 48.072 439.048 50.088 440.776 52.008C446.056 48.456 450.952 46.824 454.696 45.96ZM435.496 63.624C437.512 62.568 440.776 57.576 439.72 55.176C439.144 55.656 435.88 58.92 434.344 61.224C433.096 63.048 432.904 64.872 435.496 63.624ZM462.493 57C462.301 55.656 462.973 52.68 464.509 48.072C465.949 43.752 467.677 39.24 469.789 34.344C471.997 29.352 473.917 25.512 475.741 22.824C477.469 20.136 479.005 18.696 480.445 18.408C481.309 18.312 482.173 18.6 482.845 19.368C482.845 19.368 482.749 19.368 482.653 19.368C482.173 19.464 481.693 19.848 481.117 20.52C480.061 21.864 478.813 23.88 477.277 26.472C474.973 30.888 472.861 35.208 470.941 39.432C469.021 43.656 467.389 47.4 466.141 50.664C464.893 54.12 464.221 56.136 464.317 56.904C464.221 57.384 463.933 57.672 463.357 57.768C462.781 57.768 462.493 57.48 462.493 57ZM461.725 66.312C461.245 66.408 460.957 66.216 460.669 66.024C460.477 65.736 460.285 65.352 460.285 64.872C460.189 64.2 460.285 63.528 460.669 62.856C460.957 62.088 461.437 61.608 462.109 61.224C462.205 61.224 462.301 61.224 462.397 61.224C462.877 61.128 463.165 61.416 463.357 62.088C463.549 62.664 463.453 63.624 462.973 64.872C462.589 65.64 462.301 66.024 462.109 66.216C461.917 66.216 461.821 66.312 461.725 66.312Z" fill="#849573"/>
</svg>
