<svg width="240" height="90" viewBox="0 0 240 90" fill="none" xmlns="http://www.w3.org/2000/svg">
<path d="M110.561 54.96C111.521 53.904 112.865 55.248 111.809 56.304C105.761 62.544 95.7769 64.56 89.0569 61.2C85.8889 67.536 78.7849 79.248 70.5289 81.36C66.1129 82.416 61.6969 80.976 59.4889 76.08C57.1849 70.896 57.9529 63.792 59.1049 58.32C57.1849 61.872 52.9609 70.512 47.7769 76.656C37.0249 89.328 27.3289 84.144 28.4809 69.168C29.9209 50.256 39.0409 31.152 46.7209 21.168C29.3449 27.6 0.928875 40.848 5.15288 58.8C5.53688 60.624 1.98488 61.2 1.79288 58.992C1.98488 36.528 26.0809 24.912 48.1609 18.672C52.6729 11.376 57.4729 10.32 58.8169 11.856C60.1609 13.488 58.6249 17.52 51.2329 20.016C39.4249 34.512 31.4569 60.24 31.8409 73.008C32.0329 83.184 38.9449 84.24 46.5289 74.736C52.0009 67.824 56.8969 57.936 61.3129 46.32C62.0809 44.4 66.4969 45.552 65.7289 47.664C63.3289 55.056 59.6809 67.44 62.2729 75.024C63.6169 78.672 66.3049 80.112 69.4729 79.344C77.0569 77.616 84.1609 65.232 86.6569 59.568C79.2649 52.752 77.0569 40.08 79.0729 29.328C83.2969 6.86399 103.553 0.911997 98.6569 30.576C97.0249 40.656 93.1849 52.368 90.0169 59.28C95.1049 62.736 105.569 60.624 110.561 54.96ZM52.9609 17.328C58.2409 11.472 58.5289 14.64 52.9609 17.328V17.328ZM87.5209 57.456C89.9209 52.368 93.9529 39.696 95.2969 30.192C99.2329 2.736 84.8329 11.28 81.3769 29.808C79.6489 39.408 81.1849 50.832 87.5209 57.456ZM116.452 49.392C118.756 48.72 120.004 50.448 119.908 52.176C119.62 56.688 113.956 60.72 110.5 61.968C109.06 67.248 117.508 70.704 127.204 55.44C127.972 54.192 129.22 55.152 128.644 56.016C125.572 60.624 120.196 67.728 115.012 68.4C110.596 68.976 106.756 66 107.908 60.336C108.772 55.824 112.9 50.352 116.452 49.392ZM118.372 51.12C117.508 50.352 112.228 54.672 110.692 60.336C116.356 57.072 119.14 51.792 118.372 51.12ZM130.344 56.592C128.616 58.896 128.136 61.776 127.752 64.56C126.792 70.512 128.232 76.752 135.048 71.856C140.52 67.824 147.432 58.416 148.968 55.152C149.352 54.48 150.504 54.96 150.216 55.632C147.144 62.064 140.808 69.456 135.912 73.296C130.632 77.424 125.16 76.464 124.872 68.88C124.296 57.552 132.264 40.656 138.792 31.536C143.592 24.72 147.048 23.472 148.968 25.008C150.888 26.448 150.696 30.672 146.28 37.488C140.808 46.032 133.992 51.504 130.344 56.592ZM141.768 32.688C135.912 40.56 131.688 49.68 131.112 52.272C137.448 46.224 142.44 40.368 144.84 36.528C150.312 27.792 148.2 24.048 141.768 32.688ZM153.452 67.728C157.388 66.864 163.724 62.928 168.524 55.44C169.484 54.096 170.828 55.248 170.156 56.208C166.604 61.776 157.964 70.608 151.34 69.936C147.116 69.552 145.1 65.808 146.06 61.2C146.924 56.88 152.3 49.104 157.196 48.24C159.212 47.856 160.268 49.392 160.172 51.312C160.172 53.136 159.116 55.344 158.156 56.688C157.292 57.936 155.276 56.592 156.044 55.536C157.868 53.136 158.732 50.928 158.252 50.448C157.1 49.488 152.876 54.288 150.572 59.184C149.036 62.448 148.46 65.904 149.996 67.152C150.572 67.728 151.82 68.112 153.452 67.728ZM171.983 67.056C169.103 68.688 165.647 68.496 164.783 65.04C163.823 60.624 168.527 54.384 171.407 52.848C169.583 52.176 170.735 50.064 172.367 49.68C173.327 49.392 173.903 50.448 175.151 51.6C180.911 57.264 185.231 51.888 187.535 48.432C189.071 46.224 193.007 47.76 192.335 50.544C192.047 51.504 191.663 52.656 191.087 53.904C189.935 56.592 184.463 68.784 184.175 69.744C189.359 61.296 194.255 53.424 197.615 50.064C198.767 48.912 200.975 49.392 200.495 51.312C199.727 54.288 198.383 56.016 197.231 60.816C195.407 68.496 202.799 53.136 207.023 53.616C210.095 53.904 209.039 62.928 212.495 62.832C214.031 62.832 217.871 61.008 221.903 55.248C222.575 54.288 223.919 55.152 223.247 56.016C223.247 56.016 216.431 65.136 211.727 64.848C205.295 64.56 207.503 56.304 205.583 56.304C203.567 56.304 200.111 61.68 197.999 64.272C196.943 65.52 194.447 65.136 194.351 63.408C194.159 61.68 195.599 57.072 196.175 55.248C196.655 54.096 196.559 53.328 195.599 54.672C190.511 61.872 186.863 68.304 185.327 72.24C184.367 74.352 180.047 72.336 181.007 70.32C185.711 61.392 189.647 50.16 188.591 50.448C188.111 50.64 186.863 52.56 184.463 54.192C182.351 55.536 179.567 56.304 176.687 55.344C178.511 59.088 175.823 64.656 171.983 67.056ZM172.559 53.712C165.551 61.968 167.663 67.152 170.639 65.808C174.191 64.176 176.399 57.264 172.559 53.712ZM227.171 49.392C229.475 48.72 230.723 50.448 230.627 52.176C230.339 56.688 224.675 60.72 221.219 61.968C219.779 67.248 228.227 70.704 237.923 55.44C238.691 54.192 239.939 55.152 239.363 56.016C236.291 60.624 230.915 67.728 225.731 68.4C221.315 68.976 217.475 66 218.627 60.336C219.491 55.824 223.619 50.352 227.171 49.392ZM229.091 51.12C228.227 50.352 222.947 54.672 221.411 60.336C227.075 57.072 229.859 51.792 229.091 51.12Z" fill="#849573"/>
</svg>
