<svg width="183" height="55" viewBox="0 0 183 55" fill="none" xmlns="http://www.w3.org/2000/svg">
<path d="M172.754 25.4731C173.385 25.3471 174.267 26.1035 173.7 26.86C171.683 29.6338 170.485 35.9378 173.006 36.4421C175.843 37.0095 180.193 30.3903 181.454 28.373C181.706 27.9317 182.652 28.2469 182.21 29.0034C181.265 30.5163 177.167 37.7029 173.196 37.6399C169.476 37.5768 169.098 33.7944 169.602 31.0207C168.468 32.7227 166.765 35.3074 165.189 36.4421C163.676 37.5768 161.659 36.1269 161.848 34.4879C162.164 31.3989 165 26.6709 168.026 25.4101C169.287 24.9058 170.611 26.2296 170.926 27.2383C170.926 27.3013 172.061 25.6623 172.754 25.4731ZM169.602 29.2555C169.917 27.8056 169.665 26.1666 168.594 26.5448C166.576 27.3013 163.109 34.6139 164.244 35.1813C165 35.4965 169.287 30.3272 169.602 29.2555Z" fill="#767A61"/>
<path d="M134.105 38.7112C131.016 39.1525 128.242 36.3157 129.061 32.3442C129.692 28.877 132.907 24.8424 135.555 24.149C137.383 23.7077 138.328 25.0946 138.202 26.4184C138.013 29.8856 133.663 32.7855 131.079 33.605C130.827 34.9919 131.268 36.5048 132.718 36.9461C134.798 37.6396 137.32 35.6223 139.526 33.1007C143.119 29.0031 146.145 23.0143 148.793 24.4012C150.81 25.4728 148.163 30.7052 147.532 32.2181C148.856 30.453 152.575 25.8511 154.656 28.4357C155.475 29.5074 156.043 32.6594 157.303 33.7311C159.195 35.244 162.473 33.0376 164.553 29.8226C164.868 29.3183 165.814 29.8856 165.373 30.516C163.923 32.5333 159.888 36.757 156.736 35.4332C153.773 34.1093 154.467 29.0661 152.891 29.0661C151.125 29.0661 148.037 33.8572 146.965 36.3788C146.461 37.4504 143.561 36.5679 144.065 35.181C145.011 32.5964 148.541 25.9141 147.406 25.9772C146.208 26.1032 144.506 28.7509 142.363 31.6508C139.904 34.8658 136.941 38.333 134.105 38.7112ZM137.068 25.5989C136.437 24.9685 132.34 28.0575 131.205 32.4072C135.492 30.0748 137.698 26.1032 137.068 25.5989Z" fill="#767A61"/>
<path d="M109.482 34.8031C110.05 31.7141 113.706 27.3014 116.606 26.2297C117.74 25.8514 118.812 26.1036 119.506 26.9231C120.073 26.2297 121.208 24.1494 121.397 23.8972C121.775 23.3929 123.162 23.645 122.973 24.2754C122.468 26.9231 120.955 33.8575 119.001 39.342C124.17 36.4421 127.89 33.038 130.853 28.31C131.231 27.7426 132.177 28.1839 131.672 29.0034C128.079 34.677 124.297 37.829 118.245 41.2332C113.328 54.7237 106.33 56.3628 104.061 54.2194C102.359 52.6434 102.485 49.6175 108.474 45.2047C110.428 43.8178 113.202 42.1788 116.227 40.4767C117.677 36.8834 119.316 32.0924 120.199 28.31C119.19 30.0121 114.778 36.9465 113.075 37.6399C111.247 38.3333 109.167 36.7573 109.482 34.8031ZM104.628 52.2652C105.511 54.0303 111.941 51.6978 115.66 42.3049C107.717 46.4655 103.998 51.1305 104.628 52.2652ZM117.614 27.1753C115.03 27.9317 110.491 35.7487 111.815 36.3791C113.202 37.0725 118.182 29.8229 118.434 28.7513C118.749 27.5535 118.308 26.9862 117.614 27.1753Z" fill="#767A61"/>
<path d="M105.221 25.4731C105.851 25.3471 106.734 26.1035 106.167 26.86C104.149 29.6338 102.952 35.9378 105.473 36.4421C108.31 37.0095 112.66 30.3903 113.921 28.373C114.173 27.9317 115.118 28.2469 114.677 29.0034C113.731 30.5163 109.634 37.7029 105.662 37.6399C101.943 37.5768 101.565 33.7944 102.069 31.0207C100.934 32.7227 99.2322 35.3074 97.6562 36.4421C96.1433 37.5768 94.126 36.1269 94.3151 34.4879C94.6303 31.3989 97.4671 26.6709 100.493 25.4101C101.754 24.9058 103.078 26.2296 103.393 27.2383C103.393 27.3013 104.528 25.6623 105.221 25.4731ZM102.069 29.2555C102.384 27.8056 102.132 26.1666 101.06 26.5448C99.0431 27.3013 95.5759 34.6139 96.7106 35.1813C97.4671 35.4965 101.754 30.3272 102.069 29.2555Z" fill="#767A61"/>
<path d="M72.2925 19.5473C71.4099 19.2321 71.9142 17.8452 72.7337 18.1604C74.8771 19.043 81.8115 17.9713 86.4765 17.2779C87.6112 15.2606 88.7459 13.4324 89.8176 11.9195C93.1587 7.38061 95.5542 6.62413 96.815 7.63277C98.1389 8.70445 98.0128 11.6043 95.0499 16.1432C99.3997 15.7019 108.162 14.8824 113.395 16.1432C114.214 16.3323 113.647 17.9083 112.764 17.53C108.54 15.954 99.2105 16.8996 94.1043 17.467C90.511 22.5102 86.4134 25.7883 84.0809 28.9403C82.8832 30.5163 82.568 32.4705 82.2528 34.4248C81.9376 36.5681 82.1267 38.4593 83.0723 39.7832C85.9091 43.5656 95.3021 31.588 96.8781 28.3729C97.0672 27.9316 97.8867 28.2468 97.6976 28.6881C95.4281 33.4161 90.511 38.9006 86.9808 41.044C83.1353 43.3134 80.4877 41.7374 80.2985 37.2616C79.9833 31.7771 82.631 24.5905 85.72 18.6648C81.3702 19.2321 74.4989 20.2408 72.2925 19.5473ZM91.8979 12.802C90.8262 14.1889 89.8806 15.5758 89.0611 16.8996C90.511 16.7105 91.9609 16.5214 93.4109 16.3323C93.6 16.0171 93.7891 15.7649 93.9782 15.5128C97.7606 9.58701 96.3107 7.00237 91.8979 12.802ZM88.2416 18.2865C86.1613 21.7537 84.8374 24.8427 84.5853 26.0404C87.8633 22.9515 90.5741 20.0516 92.4022 17.7192C91.0153 17.9083 89.6285 18.0974 88.2416 18.2865Z" fill="#767A61"/>
<path d="M52.8961 36.5049C51.3832 37.5765 49.3659 36.1266 49.492 34.4876C49.8072 31.3986 52.707 26.6706 55.6699 25.4098C56.9307 24.9055 58.2545 26.2293 58.6328 27.238C58.6328 27.301 59.7675 25.662 60.4609 25.4729C61.0913 25.3468 61.9739 26.1663 61.4065 26.9228C59.7044 29.1292 58.3176 34.2354 59.5784 35.5593C60.65 36.694 63.2347 32.5964 65.6932 28.814C67.7736 25.662 69.98 21.8165 71.9342 22.8252C73.132 23.4556 72.6907 25.662 71.8712 28.1205C71.1777 30.2639 70.2321 32.5333 69.9169 33.2898C71.1147 31.5877 73.3211 25.9141 75.6536 26.4185C77.5448 26.7337 79.436 30.39 82.7771 27.7423C83.2184 27.3641 83.7227 28.0575 83.1553 28.4988C76.347 33.2898 76.5361 26.1033 74.3297 28.2466C72.5646 29.9487 70.2321 35.2441 69.3496 37.3874C68.8452 38.5221 65.9454 37.7657 66.6388 36.3157C68.2779 32.5964 71.682 24.7794 70.6104 24.4642C69.9169 24.3381 68.1518 26.7967 66.5758 29.3183C64.1803 33.1007 61.4065 37.6396 59.011 37.3874C56.5524 37.1353 56.7416 33.1637 57.3089 31.0204C56.1742 32.7225 54.4721 35.3071 52.8961 36.5049ZM56.3003 26.5445C54.22 27.301 50.7528 34.6137 51.9505 35.181C52.644 35.4962 56.9307 30.3269 57.2459 29.2553C57.6241 27.8684 57.3089 26.1663 56.3003 26.5445Z" fill="#767A61"/>
<path d="M35.4371 25.158C32.4112 27.1753 28.4397 29.5078 24.5312 30.9577C22.9552 36.8204 23.0813 47.4742 32.096 46.0242C39.4717 44.7634 47.6669 36.0009 52.2058 29.3186C52.3949 29.0034 52.584 28.7513 52.7731 28.4361C52.7731 28.4361 52.7731 28.373 52.8362 28.373C52.8362 28.31 52.8992 28.247 52.8992 28.247C53.3405 27.8057 53.8448 28.247 53.5927 28.7513C52.7731 30.2642 51.7015 31.9033 50.5037 33.5423C45.9648 39.9724 38.9674 46.7177 32.4743 47.6002C24.5312 48.6089 19.8663 42.1158 21.6944 31.9033C13.9405 34.0466 5.61922 32.975 0.512983 29.6969C-0.684777 28.8774 0.449943 27.3014 1.52162 28.1209C5.93442 31.7772 13.9405 32.5967 22.1357 29.7599C25.0986 19.4844 32.6634 9.08281 40.7325 3.47225C47.856 -1.44487 53.4666 -1.12967 54.5383 4.35481C56.1773 12.8022 47.5408 28.4991 39.2195 28.4991C37.3283 28.4991 35.8784 27.4274 35.4371 25.158ZM42.3715 4.73305C35.7523 9.83929 28.2506 19.4214 25.1616 28.5622C29.0701 26.9231 33.0416 24.5906 35.6893 22.5103C38.2109 14.2521 43.2541 10.6588 45.2714 11.5414C47.0365 12.3609 46.0909 17.6562 37.1392 23.9602C36.761 26.1666 37.7066 27.3644 39.3456 27.3014C45.8387 26.9862 53.9079 12.1718 52.9623 4.16569C52.521 0.383288 49.0538 -0.436233 42.3715 4.73305ZM37.7066 21.1234C43.3802 16.6476 45.2083 13.1174 44.641 12.613C44.0106 12.1087 40.3543 15.0086 37.7066 21.1234Z" fill="#767A61"/>
</svg>
