<svg width="172" height="55" viewBox="0 0 172 55" fill="none" xmlns="http://www.w3.org/2000/svg">
<path d="M149.553 35.1994C150.109 32.171 153.693 27.8448 156.536 26.7941C157.649 26.4233 158.7 26.6705 159.379 27.474C159.936 26.7941 161.048 24.7546 161.233 24.5074C161.604 24.013 162.964 24.2602 162.779 24.8782C162.284 27.474 160.801 34.2723 158.885 39.6492C163.953 36.8063 167.599 33.4689 170.504 28.8336C170.875 28.2774 171.802 28.71 171.307 29.5135C167.785 35.0758 164.076 38.1659 158.143 41.5033C153.323 54.7292 146.462 56.3361 144.238 54.2348C142.569 52.6897 142.692 49.7232 148.564 45.3969C150.48 44.0373 153.199 42.4304 156.166 40.7617C157.587 37.2389 159.194 32.5418 160.059 28.8336C159.07 30.5023 154.744 37.3007 153.075 37.9805C151.283 38.6604 149.244 37.1153 149.553 35.1994ZM144.794 52.3189C145.659 54.0494 151.963 51.7627 155.609 42.554C147.822 46.633 144.176 51.2064 144.794 52.3189ZM157.525 27.7212C154.991 28.4628 150.541 36.1264 151.839 36.7445C153.199 37.4243 158.082 30.3169 158.329 29.2663C158.638 28.092 158.205 27.5358 157.525 27.7212Z" fill="#767A61"/>
<path d="M125.57 25.8671C125.137 25.6199 125.57 23.8276 126.126 22.9624C126.682 22.2825 128.413 22.9006 127.733 23.9512C127.548 24.2602 127.177 24.5692 127.053 24.7547C126.002 25.9907 126.126 26.0525 125.57 25.8671ZM123.036 36.9917C120.317 35.2612 122.727 28.9573 123.963 26.856C124.457 25.9907 126.497 27.1032 125.941 27.783C124.457 29.5753 122.85 34.6432 124.148 35.8793C126.373 37.9188 133.79 27.7212 135.026 26.2997C136.138 25.0019 137.251 24.322 138.363 24.8783C140.279 25.8671 137.251 31.6766 136.633 33.2217C138.61 30.8114 142.071 26.3615 144.049 28.8337C144.914 29.9461 145.409 32.9745 146.707 34.0252C148.499 35.5084 151.713 33.3453 153.814 30.2551C154.123 29.6989 154.988 30.317 154.617 30.8732C153.196 32.9127 149.241 36.9917 146.15 35.6938C143.184 34.4578 143.864 29.4517 142.38 29.4517C140.65 29.4517 137.56 34.1488 136.509 36.6209C136.076 37.6715 133.233 36.8681 133.728 35.4466C134.655 32.9127 138.116 26.3615 137.003 26.4233C136.015 26.5469 133.975 29.5135 131.688 32.0474C129.525 34.5196 126.126 38.9076 123.036 36.9917Z" fill="#767A61"/>
<path d="M100.113 36.6208C97.5794 34.4577 103.203 25.4962 106.912 24.631C108.457 24.2602 109.878 25.1872 110.187 25.7434C112.165 21.1082 114.699 16.8438 117.047 13.7536C120.323 9.48917 122.61 8.74753 123.784 9.73638C124.958 10.787 124.711 13.4446 121.806 17.7708C119.396 21.2318 116.059 24.322 112.783 26.6087C112.227 27.0413 111.114 28.4628 110.805 29.0808C109.693 31.1821 107.962 39.2784 110.929 40.3908C113.895 41.4415 119.705 34.5813 123.228 28.71C123.475 28.3392 124.278 28.8336 124.093 29.2044C120.57 35.1994 114.204 43.9136 109.755 41.6269C105.799 39.5256 107.715 32.2946 108.766 29.4516C107.592 30.8731 102.833 38.9076 100.113 36.6208ZM118.902 14.6188C116.182 18.2652 113.03 23.4567 112.598 25.1254C116.244 22.7151 119.211 19.5013 120.817 17.1528C124.587 11.5905 123.166 9.05655 118.902 14.6188ZM107.159 25.7434C105.119 26.4233 100.361 34.3341 101.906 35.1994C103.08 35.941 108.333 28.3392 108.704 27.2885C109.075 25.9289 108.21 25.4344 107.159 25.7434Z" fill="#767A61"/>
<path d="M79.17 36.6208C76.636 34.4577 82.2601 25.4962 85.9683 24.631C87.5134 24.2602 88.9349 25.1872 89.2439 25.7434C91.2216 21.1082 93.7556 16.8438 96.1041 13.7536C99.3797 9.48917 101.666 8.74753 102.841 9.73638C104.015 10.787 103.768 13.4446 100.863 17.7708C98.4526 21.2318 95.1152 24.322 91.8396 26.6087C91.2834 27.0413 90.171 28.4628 89.8619 29.0808C88.7495 31.1821 87.019 39.2784 89.9855 40.3908C92.9521 41.4415 98.7616 34.5813 102.284 28.71C102.532 28.3392 103.335 28.8336 103.15 29.2044C99.6269 35.1994 93.2611 43.9136 88.8113 41.6269C84.8559 39.5256 86.7718 32.2946 87.8224 29.4516C86.6482 30.8731 81.8893 38.9076 79.17 36.6208ZM97.9582 14.6188C95.2388 18.2652 92.0869 23.4567 91.6542 25.1254C95.3006 22.7151 98.2672 19.5013 99.8741 17.1528C103.644 11.5905 102.223 9.05655 97.9582 14.6188ZM86.2155 25.7434C84.176 26.4233 79.4172 34.3341 80.9623 35.1994C82.1365 35.941 87.3898 28.3392 87.7606 27.2885C88.1314 25.9289 87.2662 25.4344 86.2155 25.7434Z" fill="#767A61"/>
<path d="M73.9344 25.1254C75.4177 24.6928 76.2211 25.8052 76.1593 26.9177C75.9739 29.8224 72.3275 32.4182 70.1026 33.2216C69.1755 36.6208 74.6142 38.8457 80.8564 29.019C81.3508 28.2156 82.1542 28.8336 81.7834 29.3898C79.8057 32.3564 76.3447 36.9298 73.0073 37.3625C70.1644 37.7333 67.6922 35.8174 68.4339 32.171C68.9901 29.2662 71.6477 25.7434 73.9344 25.1254ZM75.1704 26.2379C74.6142 25.7434 71.215 28.5246 70.2262 32.171C73.8726 30.0697 75.6649 26.6705 75.1704 26.2379Z" fill="#767A61"/>
<path d="M70.1423 28.71C70.7604 28.0301 71.6256 28.8954 70.9458 29.5752C67.0522 33.5924 60.6246 34.8903 56.2984 32.7272C54.2589 36.8062 49.6854 44.3462 44.3703 45.7059C41.5274 46.3857 38.6844 45.4587 37.2629 42.3067C35.7797 38.9693 36.2741 34.3959 37.0157 30.8731C35.7797 33.1598 33.0603 38.7221 29.7229 42.6775C22.801 50.8356 16.5588 47.4982 17.3005 37.8568C18.2275 25.6816 24.0988 13.3827 29.0431 6.95518C17.8567 11.096 -0.437089 19.6249 2.28226 31.1821C2.52947 32.3564 0.242747 32.7272 0.119141 31.3057C0.242747 16.8437 15.7554 9.36551 29.9702 5.34829C32.8749 0.651238 35.9651 -0.0285979 36.8303 0.960257C37.6956 2.01091 36.7067 4.60665 31.9479 6.21354C24.3461 15.5458 19.2164 32.1091 19.4636 40.329C19.5872 46.8801 24.037 47.56 28.9195 41.4414C32.4423 36.9916 35.5943 30.6259 38.4372 23.1477C38.9316 21.9116 41.7746 22.6532 41.2802 24.0129C39.7351 28.7718 37.3866 36.7444 39.0552 41.6269C39.9205 43.9754 41.651 44.9024 43.6905 44.408C48.573 43.2955 53.1464 35.3229 54.7533 31.6765C49.9944 27.2885 48.573 19.1304 49.8708 12.2085C52.5902 -2.25352 65.6307 -6.08532 62.4787 13.0119C61.4281 19.5013 58.9559 27.0413 56.9164 31.4911C60.192 33.716 66.9285 32.3564 70.1423 28.71ZM33.0603 4.48305C36.4595 0.713042 36.6449 2.75255 33.0603 4.48305V4.48305ZM55.3095 30.3168C56.8546 27.0413 59.4503 18.8832 60.3156 12.7647C62.8495 -4.91106 53.579 0.589434 51.3541 12.5175C50.2416 18.6978 51.2305 26.0524 55.3095 30.3168Z" fill="#767A61"/>
</svg>
