<svg width="267" height="86" viewBox="0 0 267 86" fill="none" xmlns="http://www.w3.org/2000/svg">
<path d="M232.611 55.04C233.475 50.336 239.043 43.616 243.459 41.984C245.187 41.408 246.819 41.792 247.875 43.04C248.739 41.984 250.467 38.816 250.755 38.432C251.331 37.664 253.443 38.048 253.155 39.008C252.387 43.04 250.083 53.6 247.107 61.952C254.979 57.536 260.643 52.352 265.155 45.152C265.731 44.288 267.171 44.96 266.403 46.208C260.931 54.848 255.171 59.648 245.955 64.832C238.467 85.376 227.811 87.872 224.355 84.608C221.763 82.208 221.955 77.6 231.075 70.88C234.051 68.768 238.275 66.272 242.883 63.68C245.091 58.208 247.587 50.912 248.931 45.152C247.395 47.744 240.675 58.304 238.083 59.36C235.299 60.416 232.131 58.016 232.611 55.04ZM225.219 81.632C226.563 84.32 236.355 80.768 242.019 66.464C229.923 72.8 224.259 79.904 225.219 81.632ZM244.995 43.424C241.059 44.576 234.147 56.48 236.163 57.44C238.275 58.496 245.859 47.456 246.243 45.824C246.723 44 246.051 43.136 244.995 43.424Z" fill="#767A61"/>
<path d="M195.359 40.544C194.687 40.16 195.359 37.376 196.223 36.032C197.087 34.976 199.775 35.936 198.719 37.568C198.431 38.048 197.855 38.528 197.663 38.816C196.031 40.736 196.223 40.832 195.359 40.544ZM191.423 57.824C187.199 55.136 190.943 45.344 192.863 42.08C193.631 40.736 196.799 42.464 195.935 43.52C193.631 46.304 191.135 54.176 193.151 56.096C196.607 59.264 208.127 43.424 210.047 41.216C211.775 39.2 213.503 38.144 215.231 39.008C218.207 40.544 213.503 49.568 212.543 51.968C215.615 48.224 220.991 41.312 224.063 45.152C225.407 46.88 226.175 51.584 228.191 53.216C230.975 55.52 235.967 52.16 239.231 47.36C239.711 46.496 241.055 47.456 240.479 48.32C238.271 51.488 232.127 57.824 227.327 55.808C222.719 53.888 223.775 46.112 221.471 46.112C218.783 46.112 213.983 53.408 212.351 57.248C211.679 58.88 207.263 57.632 208.031 55.424C209.471 51.488 214.847 41.312 213.119 41.408C211.583 41.6 208.415 46.208 204.863 50.144C201.503 53.984 196.223 60.8 191.423 57.824Z" fill="#767A61"/>
<path d="M155.818 57.248C151.882 53.888 160.618 39.968 166.378 38.624C168.778 38.048 170.986 39.488 171.466 40.352C174.538 33.152 178.474 26.528 182.122 21.728C187.21 15.104 190.762 13.952 192.586 15.488C194.41 17.12 194.026 21.248 189.514 27.968C185.77 33.344 180.586 38.144 175.498 41.696C174.634 42.368 172.906 44.576 172.426 45.536C170.698 48.8 168.01 61.376 172.618 63.104C177.226 64.736 186.25 54.08 191.722 44.96C192.106 44.384 193.354 45.152 193.066 45.728C187.594 55.04 177.706 68.576 170.794 65.024C164.65 61.76 167.626 50.528 169.258 46.112C167.434 48.32 160.042 60.8 155.818 57.248ZM185.002 23.072C180.778 28.736 175.882 36.8 175.21 39.392C180.874 35.648 185.482 30.656 187.978 27.008C193.834 18.368 191.626 14.432 185.002 23.072ZM166.762 40.352C163.594 41.408 156.202 53.696 158.602 55.04C160.426 56.192 168.586 44.384 169.162 42.752C169.738 40.64 168.394 39.872 166.762 40.352Z" fill="#767A61"/>
<path d="M123.287 57.248C119.351 53.888 128.087 39.968 133.847 38.624C136.247 38.048 138.455 39.488 138.935 40.352C142.007 33.152 145.943 26.528 149.591 21.728C154.679 15.104 158.231 13.952 160.055 15.488C161.879 17.12 161.495 21.248 156.983 27.968C153.239 33.344 148.055 38.144 142.967 41.696C142.103 42.368 140.375 44.576 139.895 45.536C138.167 48.8 135.479 61.376 140.087 63.104C144.695 64.736 153.719 54.08 159.191 44.96C159.575 44.384 160.823 45.152 160.535 45.728C155.063 55.04 145.175 68.576 138.263 65.024C132.119 61.76 135.095 50.528 136.727 46.112C134.903 48.32 127.511 60.8 123.287 57.248ZM152.471 23.072C148.247 28.736 143.351 36.8 142.679 39.392C148.343 35.648 152.951 30.656 155.447 27.008C161.303 18.368 159.095 14.432 152.471 23.072ZM134.231 40.352C131.063 41.408 123.671 53.696 126.071 55.04C127.895 56.192 136.055 44.384 136.631 42.752C137.207 40.64 135.863 39.872 134.231 40.352Z" fill="#767A61"/>
<path d="M115.155 39.392C117.459 38.72 118.707 40.448 118.611 42.176C118.323 46.688 112.659 50.72 109.203 51.968C107.763 57.248 116.211 60.704 125.907 45.44C126.675 44.192 127.923 45.152 127.347 46.016C124.275 50.624 118.899 57.728 113.715 58.4C109.299 58.976 105.459 56 106.611 50.336C107.475 45.824 111.603 40.352 115.155 39.392ZM117.075 41.12C116.211 40.352 110.931 44.672 109.395 50.336C115.059 47.072 117.843 41.792 117.075 41.12Z" fill="#767A61"/>
<path d="M109.264 44.96C110.224 43.904 111.568 45.248 110.512 46.304C104.464 52.544 94.4801 54.56 87.7601 51.2C84.5921 57.536 77.4881 69.248 69.2321 71.36C64.8161 72.416 60.4001 70.976 58.1921 66.08C55.8881 60.896 56.6561 53.792 57.8081 48.32C55.8881 51.872 51.6641 60.512 46.4801 66.656C35.7281 79.328 26.0321 74.144 27.1841 59.168C28.6241 40.256 37.7441 21.152 45.4241 11.168C28.0481 17.6 -0.367906 30.848 3.85609 48.8C4.24009 50.624 0.688094 51.2 0.496094 48.992C0.688094 26.528 24.7841 14.912 46.8641 8.67196C51.3761 1.37596 56.1761 0.319958 57.5201 1.85596C58.8641 3.48796 57.3281 7.51996 49.9361 10.016C38.1281 24.512 30.1601 50.24 30.5441 63.008C30.7361 73.184 37.6481 74.24 45.2321 64.736C50.7041 57.824 55.6001 47.936 60.0161 36.32C60.7841 34.4 65.2001 35.552 64.4321 37.664C62.0321 45.056 58.3841 57.44 60.9761 65.024C62.3201 68.672 65.0081 70.112 68.1761 69.344C75.7601 67.616 82.8641 55.232 85.3601 49.568C77.9681 42.752 75.7601 30.08 77.7761 19.328C82.0001 -3.13604 102.256 -9.08804 97.3601 20.576C95.7281 30.656 91.8881 42.368 88.7201 49.28C93.8081 52.736 104.272 50.624 109.264 44.96ZM51.6641 7.32796C56.9441 1.47196 57.2321 4.63996 51.6641 7.32796V7.32796ZM86.2241 47.456C88.6241 42.368 92.6561 29.696 94.0001 20.192C97.9361 -7.26404 83.5361 1.27996 80.0801 19.808C78.3521 29.408 79.8881 40.832 86.2241 47.456Z" fill="#767A61"/>
</svg>
