<svg width="199" height="91" viewBox="0 0 199 91" fill="none" xmlns="http://www.w3.org/2000/svg">
<path d="M0.78175 56.792C0.58975 41.432 13.9338 35.096 26.0298 31.064C30.0618 20.408 39.1818 12.152 50.4138 7.64C68.5578 0.247995 76.7178 10.712 60.6858 20.984C50.6058 27.416 39.7578 29.72 28.6218 33.272C26.8938 38.744 26.9898 47.48 35.5338 47.768C46.6698 48.152 54.5417 34.136 59.0538 25.976C59.5338 24.92 61.5498 25.4 61.3578 26.552C58.7658 36.632 56.5578 47.384 51.6618 56.792C57.9978 55.928 65.1018 53.144 69.8058 49.304C70.5738 48.728 71.8218 49.88 70.6698 50.84C65.4858 54.872 57.4218 57.848 50.6058 58.712C44.7498 69.08 35.2458 78.68 23.3418 78.68C7.78975 78.68 3.27775 62.072 20.9418 58.328C29.3898 56.504 39.2778 57.848 47.3418 57.08C51.3738 49.784 54.2538 42.392 56.4618 34.424C51.4698 41.528 45.0378 50.072 34.8618 49.784C25.5498 49.592 23.4377 41.432 24.9738 34.424C14.5098 37.976 1.06975 43.928 3.46975 56.216C3.85375 58.04 0.78175 58.232 0.78175 56.792ZM22.4778 76.28C33.0378 76.184 41.4858 66.68 46.2858 59C38.1258 59.768 28.8138 58.808 20.9418 60.632C5.19775 64.28 10.8618 76.472 22.4778 76.28ZM52.2378 9.464C42.3498 13.496 33.9018 20.792 29.8698 29.912C40.7178 26.648 50.3178 25.304 59.6298 19.352C74.2218 10.04 66.0618 3.8 52.2378 9.464ZM82.027 43.832C82.987 43.64 84.331 44.792 83.467 45.944C80.395 50.168 78.571 59.768 82.411 60.536C86.731 61.4 93.355 51.32 95.275 48.248C95.659 47.576 97.099 48.056 96.427 49.208C94.987 51.512 88.747 62.456 82.699 62.36C77.035 62.264 76.459 56.504 77.227 52.28C75.499 54.872 72.907 58.808 70.507 60.536C68.203 62.264 65.131 60.056 65.419 57.56C65.899 52.856 70.219 45.656 74.827 43.736C76.747 42.968 78.763 44.984 79.243 46.52C79.243 46.616 80.971 44.12 82.027 43.832ZM77.227 49.592C77.707 47.384 77.323 44.888 75.691 45.464C72.619 46.616 67.339 57.752 69.067 58.616C70.219 59.096 76.747 51.224 77.227 49.592ZM113.381 15.704H113.573C114.341 15.704 115.013 16.184 115.493 17.144C115.781 17.72 115.877 18.296 115.877 18.968C115.877 22.232 113.669 27.128 109.157 33.56C107.717 35.768 104.933 39.512 101.093 44.696C99.0768 47.288 97.7328 49.208 96.9648 50.36C96.6768 50.936 96.3888 51.8 96.1008 52.952C95.5248 55.448 95.3328 57.656 95.3328 59.864C95.3328 62.84 95.8128 64.856 96.8688 65.624C97.2528 65.816 97.6367 66.008 98.0208 66.008H98.2128C99.8448 66.008 101.957 64.184 104.645 60.632C106.373 58.136 107.909 55.64 109.253 53.048C110.501 50.744 111.557 48.056 112.613 44.984C114.245 40.088 116.165 35.672 118.277 31.64C119.237 29.912 120.485 27.896 121.829 25.784C122.405 24.92 123.269 23.864 124.133 22.808C125.189 21.656 126.053 20.984 126.629 20.6C127.397 20.12 128.069 19.832 128.645 19.832H128.741C129.797 19.832 130.469 20.408 130.949 21.56C131.141 22.04 131.237 22.52 131.237 23V23.288C131.237 25.976 129.605 29.816 126.437 34.712C125.285 36.632 123.653 38.744 121.733 41.24C120.869 42.296 119.045 44.312 116.453 47.384L115.013 49.304C114.437 50.072 114.053 50.84 113.861 51.512C113.477 52.952 113.285 54.68 113.285 56.6V56.888C113.285 56.888 113.285 56.888 113.189 56.984C113.285 56.984 113.285 56.984 113.285 56.984V57.176C113.285 59.864 113.669 62.264 114.437 64.376C114.629 64.856 114.917 65.336 115.301 65.816C115.685 66.2 116.069 66.488 116.549 66.68C116.741 66.872 116.933 67.16 116.933 67.448C116.933 68.12 116.549 68.6 115.877 69.08C115.685 69.176 115.493 69.272 115.397 69.272H115.205C114.629 69.272 113.861 68.6 113.093 67.352C112.709 66.776 112.421 66.104 112.133 65.336C111.845 64.664 111.557 63.608 111.269 62.168C110.981 60.344 110.885 58.712 110.885 57.272V56.696C110.885 55.736 110.885 54.968 111.077 54.104C110.213 55.832 108.965 57.752 107.621 59.96C106.757 61.112 105.797 62.36 104.645 63.704C103.493 65.048 102.725 65.912 102.341 66.2C100.517 67.736 98.9808 68.504 97.7328 68.504H97.6367C96.6768 68.504 95.8128 68.12 94.9488 67.256C93.5087 65.72 92.8367 63.32 92.8367 60.056V59.48C92.8367 56.024 93.6047 51.608 95.2368 46.136C96.6768 41.528 98.3088 37.208 100.133 33.368C101.573 30.2 103.205 26.936 105.125 23.768C105.989 22.424 106.949 20.984 108.101 19.448C110.213 16.952 111.941 15.704 113.381 15.704ZM97.7328 45.944C99.2688 44.312 100.325 43.16 100.805 42.584C102.629 40.28 104.453 37.88 106.181 35.288C110.021 29.624 112.421 25.592 113.189 23.192C113.765 21.944 113.957 20.888 113.957 20.12V20.024C113.957 19.352 113.765 18.968 113.285 18.968C112.421 18.968 111.077 20.216 109.253 22.616C107.717 24.824 106.373 26.936 105.317 29.048C102.725 33.848 100.517 38.456 98.7888 43.064C98.3088 44.024 98.0208 45.08 97.7328 45.944ZM115.109 45.944C116.933 44.024 118.565 42.2 119.909 40.568C121.541 38.648 122.693 37.208 123.461 36.152C125.285 33.656 126.533 31.64 127.301 30.008C128.645 27.512 129.317 25.592 129.317 24.344V24.248C129.317 23.48 129.029 23.096 128.645 23.096C127.781 23.096 126.533 24.344 124.709 26.648C123.077 28.952 121.637 31.256 120.485 33.368C118.757 36.44 117.317 39.608 116.069 42.776C115.781 43.544 115.397 44.6 115.109 45.944ZM132.952 63.704C128.248 64.472 124.024 60.44 125.272 54.2C126.232 48.92 131.128 42.584 135.16 41.432C137.944 40.664 139.384 42.68 139.192 44.696C138.904 49.976 132.28 54.68 128.344 56.12C127.96 58.232 128.728 60.536 130.84 61.112C140.152 63.608 149.368 36.824 155.224 39.8C156.952 40.76 156.28 44.12 155.032 47.864C153.976 51.128 152.536 54.584 152.056 55.736C153.88 53.144 157.24 44.504 160.792 45.272C163.672 45.752 166.648 51.32 171.64 47.288C172.408 46.712 173.08 47.768 172.216 48.44C161.848 55.736 162.136 44.792 158.776 48.056C156.088 50.648 152.536 58.712 151.192 61.976C150.424 63.704 146.104 62.552 147.064 60.344C149.56 54.68 154.744 43.256 153.016 42.872C151.96 42.584 149.368 46.52 146.392 50.936C142.648 56.408 137.944 62.936 132.952 63.704ZM137.464 43.448C136.504 42.584 130.264 47.576 128.536 54.2C135.064 50.456 138.424 44.312 137.464 43.448ZM196.806 48.152C197.286 47.288 198.726 47.96 197.958 49.208C192.87 57.848 187.302 62.648 178.662 67.832C171.654 88.376 161.478 90.872 158.214 87.608C155.718 85.208 155.91 80.6 164.55 73.88C167.238 71.768 171.654 69.08 176.07 66.584C178.086 61.016 179.622 53.72 180.87 47.96C179.046 51.032 176.262 56.216 173.766 59.096C170.406 62.936 165.702 61.4 167.238 56.12C168.198 52.76 170.886 47.576 173.382 44.984C174.15 44.12 175.59 45.368 174.918 46.328C172.134 50.072 168.582 57.656 170.31 58.52C172.998 60.056 180.87 44.408 182.31 41.72C183.078 40.472 185.286 41.432 185.094 42.488C184.422 46.424 182.502 56.6 179.718 64.952C187.11 60.536 192.486 55.352 196.806 48.152ZM158.982 84.632C160.134 87.032 169.062 84.152 174.822 69.464C163.398 75.8 158.118 82.904 158.982 84.632Z" fill="#849573"/>
</svg>
