<svg width="373" height="118" viewBox="0 0 373 118" fill="none" xmlns="http://www.w3.org/2000/svg">
<path d="M73.469 54.136C67.325 58.232 59.261 62.968 51.325 65.912C48.125 77.816 48.381 99.448 66.685 96.504C81.661 93.944 98.301 76.152 107.517 62.584C107.901 61.944 108.285 61.432 108.669 60.792C108.669 60.792 108.669 60.664 108.797 60.664C108.797 60.536 108.925 60.408 108.925 60.408C109.821 59.512 110.845 60.408 110.333 61.432C108.669 64.504 106.493 67.832 104.061 71.16C94.845 84.216 80.637 97.912 67.453 99.704C51.325 101.752 41.853 88.568 45.565 67.832C29.821 72.184 12.925 70.008 2.557 63.352C0.125 61.688 2.429 58.488 4.605 60.152C13.565 67.576 29.821 69.24 46.461 63.48C52.477 42.616 67.837 21.496 84.221 10.104C98.685 0.119995 110.077 0.759995 112.253 11.896C115.581 29.048 98.045 60.92 81.149 60.92C77.309 60.92 74.365 58.744 73.469 54.136ZM87.549 12.664C74.109 23.032 58.877 42.488 52.605 61.048C60.541 57.72 68.605 52.984 73.981 48.76C79.101 31.992 89.341 24.696 93.437 26.488C97.021 28.152 95.101 38.904 76.925 51.704C76.157 56.184 78.077 58.616 81.405 58.488C94.589 57.848 110.973 27.768 109.053 11.512C108.157 3.83199 101.117 2.16799 87.549 12.664ZM78.077 45.944C89.597 36.856 93.309 29.688 92.157 28.664C90.877 27.64 83.453 33.528 78.077 45.944ZM108.92 77.176C105.848 79.352 101.752 76.408 102.008 73.08C102.648 66.808 108.536 57.208 114.552 54.648C117.112 53.624 119.8 56.312 120.568 58.36C120.568 58.488 122.872 55.16 124.28 54.776C125.56 54.52 127.352 56.184 126.2 57.72C122.744 62.2 119.928 72.568 122.488 75.256C124.664 77.56 129.912 69.24 134.904 61.56C139.128 55.16 143.608 47.352 147.576 49.4C150.008 50.68 149.112 55.16 147.448 60.152C146.04 64.504 144.12 69.112 143.48 70.648C145.912 67.192 150.392 55.672 155.128 56.696C158.968 57.336 162.808 64.76 169.592 59.384C170.488 58.616 171.512 60.024 170.36 60.92C156.536 70.648 156.92 56.056 152.44 60.408C148.856 63.864 144.12 74.616 142.328 78.968C141.304 81.272 135.416 79.736 136.824 76.792C140.152 69.24 147.064 53.368 144.888 52.728C143.48 52.472 139.896 57.464 136.696 62.584C131.832 70.264 126.2 79.48 121.336 78.968C116.344 78.456 116.728 70.392 117.88 66.04C115.576 69.496 112.12 74.744 108.92 77.176ZM115.832 56.952C111.608 58.488 104.568 73.336 107 74.488C108.408 75.128 117.112 64.632 117.752 62.456C118.52 59.64 117.88 56.184 115.832 56.952ZM148.303 42.744C146.511 42.104 147.535 39.288 149.199 39.928C153.551 41.72 167.631 39.544 177.103 38.136C179.407 34.04 181.711 30.328 183.887 27.256C190.671 18.04 195.535 16.504 198.095 18.552C200.783 20.728 200.527 26.616 194.511 35.832C203.343 34.936 221.135 33.272 231.759 35.832C233.423 36.216 232.271 39.416 230.479 38.648C221.903 35.448 202.959 37.368 192.591 38.52C185.295 48.76 176.975 55.416 172.239 61.816C169.807 65.016 169.167 68.984 168.527 72.952C167.887 77.304 168.271 81.144 170.191 83.832C175.951 91.512 195.023 67.192 198.223 60.664C198.607 59.768 200.271 60.408 199.887 61.304C195.279 70.904 185.295 82.04 178.127 86.392C170.319 91 164.943 87.8 164.559 78.712C163.919 67.576 169.295 52.984 175.567 40.952C166.735 42.104 152.783 44.152 148.303 42.744ZM188.111 29.048C185.935 31.864 184.015 34.68 182.351 37.368C185.295 36.984 188.239 36.6 191.183 36.216C191.567 35.576 191.951 35.064 192.335 34.552C200.015 22.52 197.071 17.272 188.111 29.048ZM180.687 40.184C176.463 47.224 173.775 53.496 173.263 55.928C179.919 49.656 185.423 43.768 189.135 39.032C186.319 39.416 183.503 39.8 180.687 40.184ZM215.161 54.776C216.441 54.52 218.233 56.056 217.081 57.592C212.985 63.224 210.553 76.024 215.673 77.048C221.433 78.2 230.265 64.76 232.825 60.664C233.337 59.768 235.257 60.408 234.361 61.944C232.441 65.016 224.121 79.608 216.057 79.48C208.505 79.352 207.737 71.672 208.761 66.04C206.457 69.496 203.001 74.744 199.801 77.048C196.729 79.352 192.633 76.408 193.017 73.08C193.657 66.808 199.417 57.208 205.561 54.648C208.121 53.624 210.809 56.312 211.449 58.36C211.449 58.488 213.753 55.16 215.161 54.776ZM208.761 62.456C209.401 59.512 208.889 56.184 206.713 56.952C202.617 58.488 195.577 73.336 197.881 74.488C199.417 75.128 208.121 64.632 208.761 62.456ZM223.814 73.72C224.966 67.448 232.39 58.488 238.278 56.312C240.582 55.544 242.758 56.056 244.166 57.72C245.318 56.312 247.622 52.088 248.006 51.576C248.774 50.552 251.59 51.064 251.206 52.344C250.182 57.72 247.11 71.8 243.142 82.936C253.638 77.048 261.19 70.136 267.206 60.536C267.974 59.384 269.894 60.28 268.87 61.944C261.574 73.464 253.894 79.864 241.606 86.776C231.622 114.168 217.414 117.496 212.806 113.144C209.35 109.944 209.606 103.8 221.766 94.84C225.734 92.024 231.366 88.696 237.51 85.24C240.454 77.944 243.782 68.216 245.574 60.536C243.526 63.992 234.566 78.072 231.11 79.48C227.398 80.888 223.174 77.688 223.814 73.72ZM213.958 109.176C215.75 112.76 228.806 108.024 236.358 88.952C220.23 97.4 212.678 106.872 213.958 109.176ZM240.326 58.232C235.078 59.768 225.862 75.64 228.55 76.92C231.366 78.328 241.478 63.608 241.99 61.432C242.63 59 241.734 57.848 240.326 58.232ZM273.808 81.656C267.536 82.552 261.904 76.792 263.568 68.728C264.848 61.688 271.376 53.496 276.752 52.088C280.464 51.192 282.384 54.008 282.128 56.696C281.744 63.736 272.912 69.624 267.664 71.288C267.152 74.104 268.048 77.176 270.992 78.072C275.216 79.48 280.336 75.384 284.816 70.264C292.112 61.944 298.256 49.784 303.632 52.6C307.728 54.776 302.352 65.4 301.072 68.472C303.76 64.888 311.312 55.544 315.536 60.792C317.2 62.968 318.352 69.368 320.912 71.544C324.752 74.616 331.408 70.136 335.632 63.608C336.272 62.584 338.192 63.736 337.296 65.016C334.352 69.112 326.16 77.688 319.76 75C313.744 72.312 315.152 62.072 311.952 62.072C308.368 62.072 302.096 71.8 299.92 76.92C298.896 79.096 293.008 77.304 294.032 74.488C295.952 69.24 303.12 55.672 300.816 55.8C298.384 56.056 294.928 61.432 290.576 67.32C285.584 73.848 279.568 80.888 273.808 81.656ZM279.824 55.032C278.544 53.752 270.224 60.024 267.92 68.856C276.624 64.12 281.104 56.056 279.824 55.032ZM352.286 54.776C353.566 54.52 355.358 56.056 354.206 57.592C350.11 63.224 347.678 76.024 352.798 77.048C358.558 78.2 367.39 64.76 369.95 60.664C370.462 59.768 372.382 60.408 371.486 61.944C369.566 65.016 361.246 79.608 353.182 79.48C345.63 79.352 344.862 71.672 345.886 66.04C343.582 69.496 340.126 74.744 336.926 77.048C333.854 79.352 329.758 76.408 330.142 73.08C330.782 66.808 336.542 57.208 342.686 54.648C345.246 53.624 347.934 56.312 348.574 58.36C348.574 58.488 350.878 55.16 352.286 54.776ZM345.886 62.456C346.526 59.512 346.014 56.184 343.838 56.952C339.742 58.488 332.702 73.336 335.006 74.488C336.542 75.128 345.246 64.632 345.886 62.456Z" fill="#767A61"/>
</svg>
