<svg width="652" height="117" viewBox="0 0 652 117" fill="none" xmlns="http://www.w3.org/2000/svg">
<path d="M51.9255 11.704C52.5655 11.576 53.0775 11.192 53.5895 10.424C55.2535 8.24799 57.1735 4.92 58.4535 3.256C60.2455 0.695992 64.2135 4.27999 62.5495 5.56C61.5255 6.328 58.8375 9.784 58.0695 10.936C67.7975 10.168 76.8855 11.192 83.4135 14.776C90.7095 18.616 94.6775 25.272 92.7575 36.408C96.8535 37.048 100.054 38.072 102.87 39.608C104.15 40.248 102.614 42.424 101.206 41.784C98.5175 40.248 95.5735 39.224 92.1175 38.84C84.9495 60.088 54.8695 79.672 26.8375 81.848C24.5335 91.192 22.7415 105.912 23.3815 112.184C23.7655 116.28 16.9815 116.664 17.2375 112.696C17.4935 107.832 19.2855 94.136 22.2295 82.104C0.0854998 81.464 0.8535 62.008 30.8055 48.696C33.6215 47.288 33.8775 46.776 35.1575 44.088C40.5335 32.696 45.1415 24.632 50.2615 16.056C50.3895 15.672 50.1335 15.544 49.3655 15.672C38.2295 17.976 9.4295 29.496 10.4535 43.704C10.7095 44.6 9.5575 45.496 8.5335 45.624C7.2535 45.752 6.1015 44.984 6.2295 43.96C10.4535 24.12 36.4375 15.16 51.9255 11.704ZM22.8695 79.288C25.3015 69.688 27.9895 60.984 31.9575 51.64C9.8135 61.112 1.6215 79.544 22.8695 79.288ZM27.6055 79.032C53.7175 76.088 79.8295 57.656 87.3815 38.328C71.3815 37.176 54.1015 42.168 39.2535 48.056C38.3575 48.44 37.9735 48.952 37.4615 49.592C34.6455 54.072 28.6295 72.76 27.6055 79.032ZM81.2375 16.696C75.0935 13.496 65.8775 12.984 55.5095 14.904C48.9815 24.504 44.5015 33.592 39.6375 43.96C59.0935 37.816 69.8455 35.256 87.8935 35.896C90.4535 26.552 87.7655 20.024 81.2375 16.696ZM96.4175 70.456C94.1135 73.528 93.4735 77.368 92.9615 81.08C91.6815 89.016 93.6015 97.336 102.69 90.808C109.986 85.432 119.202 72.888 121.25 68.536C121.762 67.64 123.298 68.28 122.914 69.176C118.818 77.752 110.37 87.608 103.842 92.728C96.8015 98.232 89.5055 96.952 89.1215 86.84C88.3535 71.736 98.9775 49.208 107.682 37.048C114.082 27.96 118.69 26.296 121.25 28.344C123.81 30.264 123.554 35.896 117.666 44.984C110.37 56.376 101.282 63.672 96.4175 70.456ZM111.65 38.584C103.842 49.08 98.2095 61.24 97.4415 64.696C105.89 56.632 112.546 48.824 115.746 43.704C123.042 32.056 120.226 27.064 111.65 38.584ZM137.724 62.776C139.003 62.52 140.796 64.056 139.644 65.592C135.548 71.224 133.116 84.024 138.236 85.048C143.996 86.2 152.828 72.76 155.388 68.664C155.9 67.768 157.819 68.408 156.924 69.944C155.004 73.016 146.684 87.608 138.62 87.48C131.068 87.352 130.3 79.672 131.324 74.04C129.02 77.496 125.564 82.744 122.364 85.048C119.291 87.352 115.195 84.408 115.579 81.08C116.219 74.808 121.98 65.208 128.124 62.648C130.684 61.624 133.372 64.312 134.012 66.36C134.012 66.488 136.316 63.16 137.724 62.776ZM131.324 70.456C131.964 67.512 131.452 64.184 129.276 64.952C125.18 66.488 118.139 81.336 120.444 82.488C121.98 83.128 130.684 72.632 131.324 70.456ZM161.353 85.304C166.601 84.152 175.049 78.904 181.449 68.92C182.729 67.128 184.521 68.664 183.625 69.944C178.889 77.368 167.369 89.144 158.536 88.248C152.904 87.736 150.216 82.744 151.496 76.6C152.648 70.84 159.817 60.472 166.345 59.32C169.033 58.808 170.441 60.856 170.312 63.416C170.312 65.848 168.905 68.792 167.625 70.584C166.473 72.248 163.785 70.456 164.809 69.048C167.241 65.848 168.393 62.904 167.753 62.264C166.217 60.984 160.585 67.384 157.513 73.912C155.465 78.264 154.697 82.872 156.745 84.536C157.513 85.304 159.177 85.816 161.353 85.304ZM189.645 60.856C192.717 59.96 194.381 62.264 194.253 64.568C193.869 70.584 186.317 75.96 181.709 77.624C179.788 84.664 191.053 89.272 203.981 68.92C205.005 67.256 206.669 68.536 205.901 69.688C201.805 75.832 194.637 85.304 187.725 86.2C181.837 86.968 176.716 83 178.252 75.448C179.404 69.432 184.909 62.136 189.645 60.856ZM192.205 63.16C191.053 62.136 184.013 67.896 181.965 75.448C189.517 71.096 193.229 64.056 192.205 63.16ZM230.824 68.28C231.976 67.896 232.744 69.688 231.336 70.072C224.04 72.248 216.488 75.704 213.544 78.264C217 82.872 213.288 92.088 207.911 95.032C203.303 97.592 198.567 93.368 200.487 89.016C202.279 84.792 208.04 80.184 209.704 78.52C207.272 75.576 203.175 73.528 203.688 69.304C204.328 63.544 210.728 58.808 215.976 57.912C218.664 57.4 218.664 61.752 216.616 61.88C213.928 62.008 208.808 63.8 207.656 67.384C206.504 71.096 209.96 73.784 212.264 76.344C219.304 71.608 225.832 69.432 230.824 68.28ZM205.224 91.832C207.911 90.424 212.264 83.768 210.856 80.568C210.088 81.208 205.736 85.56 203.688 88.632C202.023 91.064 201.767 93.496 205.224 91.832ZM273.323 84.408C269.483 86.584 264.874 86.328 263.85 81.72C262.442 75.832 268.843 67.512 272.683 65.464C270.123 64.568 271.659 61.752 273.835 61.24C275.243 60.856 275.883 62.264 277.547 63.8C280.747 67 285.611 66.36 290.475 62.648C294.315 53.944 298.411 46.264 302.507 41.4C307.115 35.768 312.747 41.784 309.163 47.288C305.835 52.408 300.331 58.424 294.443 63.032C293.675 64.824 292.907 66.616 292.139 68.28C287.915 78.648 302.891 81.72 314.283 67.896C315.435 66.488 316.843 68.536 315.947 69.56C303.659 82.744 294.443 79.672 290.859 77.368C296.363 87.352 295.467 97.976 292.011 103.608C288.939 108.472 283.435 107.704 282.411 102.712C280.235 92.984 283.562 79.288 288.683 66.744C285.611 68.408 282.539 69.176 279.595 68.792C282.027 73.784 278.443 81.208 273.323 84.408ZM296.747 58.168C309.035 35.128 312.619 43.064 296.747 58.168V58.168ZM286.507 101.432C288.555 108.472 296.235 91.576 288.683 78.776C286.891 84.28 284.715 95.416 286.507 101.432ZM274.475 66.616C264.618 77.624 267.434 84.28 271.531 82.488C276.395 80.312 279.723 71.352 274.475 66.616ZM384.224 91.32C367.456 115.384 343.775 107.192 357.088 97.208C361.056 94.136 367.84 91.96 380.64 88.76C391.904 72.248 393.312 46.136 399.584 26.424C391.904 31.928 381.536 37.688 380.512 48.184C380.384 49.976 376.8 50.104 377.056 48.056C379.232 33.208 393.184 27.96 401.248 21.432C408.544 2.23199 419.68 10.04 405.088 22.328C398.048 41.912 397.536 68.536 386.4 87.736C397.92 84.408 407.392 77.752 414.816 68.28C415.84 66.872 417.888 69.304 416.608 70.584C407.136 81.464 396.128 88.504 384.224 91.32ZM378.08 92.344C338.143 101.56 361.44 113.976 378.08 92.344V92.344ZM416.129 62.52C416.897 60.344 420.993 62.136 420.097 63.8C417.025 70.328 416.001 72.504 415.489 74.936C418.177 71.224 425.729 61.624 429.953 66.744C431.617 68.792 432.769 75.064 435.329 77.112C439.169 80.056 445.697 75.32 450.049 68.664C450.689 67.64 452.481 68.792 451.713 69.944C448.769 74.296 441.089 82.872 434.689 80.44C428.673 78.136 429.953 67.768 426.753 67.896C423.169 68.024 416.513 78.264 414.337 83.384C413.312 85.688 408.832 84.664 409.728 81.592C411.264 75.96 411.392 73.912 416.129 62.52ZM429.74 50.744C427.948 50.104 428.972 47.288 430.636 47.928C434.988 49.72 449.069 47.544 458.541 46.136C460.845 42.04 463.149 38.328 465.325 35.256C472.109 26.04 476.973 24.504 479.533 26.552C482.221 28.728 481.965 34.616 475.949 43.832C484.781 42.936 502.573 41.272 513.197 43.832C514.861 44.216 513.709 47.416 511.917 46.648C503.341 43.448 484.397 45.368 474.029 46.52C466.733 56.76 458.413 63.416 453.677 69.816C451.245 73.016 450.605 76.984 449.965 80.952C449.325 85.304 449.709 89.144 451.629 91.832C457.389 99.512 476.461 75.192 479.661 68.664C480.045 67.768 481.708 68.408 481.325 69.304C476.717 78.904 466.733 90.04 459.565 94.392C451.757 99 446.38 95.8 445.996 86.712C445.356 75.576 450.733 60.984 457.005 48.952C448.172 50.104 434.22 52.152 429.74 50.744ZM469.549 37.048C467.373 39.864 465.453 42.68 463.789 45.368C466.733 44.984 469.677 44.6 472.621 44.216C473.005 43.576 473.389 43.064 473.773 42.552C481.453 30.52 478.509 25.272 469.549 37.048ZM462.125 48.184C457.901 55.224 455.213 61.496 454.701 63.928C461.357 57.656 466.861 51.768 470.573 47.032C467.757 47.416 464.941 47.8 462.125 48.184ZM486.999 89.272C480.727 90.296 475.094 84.92 476.758 76.6C478.038 69.56 484.567 61.112 489.943 59.576C493.655 58.552 495.575 61.24 495.319 63.928C494.935 70.968 486.103 77.24 480.855 79.16C480.343 81.976 481.367 85.048 484.183 85.816C496.599 89.144 508.887 53.432 516.694 57.4C518.999 58.68 518.103 63.16 516.439 68.152C515.031 72.504 513.111 77.112 512.471 78.648C514.903 75.192 519.383 63.672 524.119 64.696C527.959 65.336 531.927 72.76 538.583 67.384C539.607 66.616 540.503 68.024 539.351 68.92C525.527 78.648 525.911 64.056 521.431 68.408C517.847 71.864 513.111 82.616 511.319 86.968C510.295 89.272 504.535 87.736 505.815 84.792C509.143 77.24 516.055 62.008 513.751 61.496C512.343 61.112 508.887 66.36 504.919 72.248C499.927 79.544 493.655 88.248 486.999 89.272ZM493.015 62.264C491.735 61.112 483.415 67.768 481.111 76.6C489.815 71.608 494.295 63.416 493.015 62.264ZM545.77 60.856C548.842 59.96 550.506 62.264 550.378 64.568C549.994 70.584 542.442 75.96 537.834 77.624C535.913 84.664 547.178 89.272 560.106 68.92C561.13 67.256 562.794 68.536 562.026 69.688C557.93 75.832 550.762 85.304 543.85 86.2C537.962 86.968 532.841 83 534.377 75.448C535.529 69.432 541.034 62.136 545.77 60.856ZM548.33 63.16C547.178 62.136 540.138 67.896 538.09 75.448C545.642 71.096 549.354 64.056 548.33 63.16ZM586.949 68.28C588.101 67.896 588.869 69.688 587.461 70.072C580.165 72.248 572.613 75.704 569.669 78.264C573.125 82.872 569.413 92.088 564.036 95.032C559.428 97.592 554.692 93.368 556.612 89.016C558.404 84.792 564.165 80.184 565.829 78.52C563.397 75.576 559.3 73.528 559.812 69.304C560.453 63.544 566.853 58.808 572.101 57.912C574.789 57.4 574.789 61.752 572.741 61.88C570.053 62.008 564.933 63.8 563.781 67.384C562.629 71.096 566.085 73.784 568.389 76.344C575.429 71.608 581.957 69.432 586.949 68.28ZM561.349 91.832C564.036 90.424 568.389 83.768 566.981 80.568C566.213 81.208 561.861 85.56 559.812 88.632C558.148 91.064 557.892 93.496 561.349 91.832ZM566.24 50.744C564.448 50.104 565.472 47.288 567.136 47.928C571.488 49.72 585.569 47.544 595.041 46.136C597.345 42.04 599.649 38.328 601.825 35.256C608.609 26.04 613.473 24.504 616.033 26.552C618.721 28.728 618.465 34.616 612.449 43.832C621.281 42.936 639.073 41.272 649.697 43.832C651.361 44.216 650.209 47.416 648.417 46.648C639.841 43.448 620.897 45.368 610.529 46.52C603.233 56.76 594.913 63.416 590.177 69.816C587.745 73.016 587.105 76.984 586.465 80.952C585.825 85.304 586.209 89.144 588.129 91.832C593.889 99.512 612.961 75.192 616.161 68.664C616.545 67.768 618.208 68.408 617.825 69.304C613.217 78.904 603.233 90.04 596.065 94.392C588.257 99 582.88 95.8 582.496 86.712C581.856 75.576 587.233 60.984 593.505 48.952C584.672 50.104 570.72 52.152 566.24 50.744ZM606.049 37.048C603.873 39.864 601.953 42.68 600.289 45.368C603.233 44.984 606.177 44.6 609.121 44.216C609.505 43.576 609.889 43.064 610.273 42.552C617.953 30.52 615.009 25.272 606.049 37.048ZM598.625 48.184C594.401 55.224 591.713 61.496 591.201 63.928C597.857 57.656 603.361 51.768 607.073 47.032C604.257 47.416 601.441 47.8 598.625 48.184Z" fill="#767A61"/>
</svg>
